<svg width="352" height="192" viewBox="0 0 352 192" fill="none" xmlns="http://www.w3.org/2000/svg">
<circle cx="165.578" cy="32.7761" r="32" fill="#CAD4FA"/>
<path fill-rule="evenodd" clip-rule="evenodd" d="M144.324 70.2328V74.7559C144.324 77.2485 146.353 79.2771 148.847 79.2771H212.154C214.647 79.2771 216.676 77.2485 216.676 74.7559V70.2326H144.324L144.324 70.2328ZM212.155 81.0241H148.848C145.391 81.0241 142.578 78.2114 142.578 74.7562L142.578 69.3598C142.578 68.8774 142.969 68.4863 143.451 68.4863H217.549C218.032 68.4863 218.423 68.8775 218.423 69.3598V74.7562C218.423 78.2114 215.611 81.0244 212.155 81.0241Z" fill="#0C0421"/>
<path fill-rule="evenodd" clip-rule="evenodd" d="M157.348 88.7759H157.344L152.142 88.7685C151.642 88.7668 151.213 88.5467 150.936 88.1499C150.216 87.1184 150.841 85.2626 150.972 84.9004C151.054 84.6783 151.09 84.4656 151.09 84.2107V80.1496C151.09 79.6673 151.482 79.2765 151.964 79.2765C152.446 79.2765 152.837 79.6677 152.837 80.1499V84.2107C152.837 84.673 152.766 85.0841 152.613 85.5007C152.389 86.1119 152.316 86.7234 152.346 87.0217L157.149 87.029C157.171 86.696 157.063 86.0066 156.841 85.3933C156.769 85.1877 156.774 84.9638 156.858 84.7621L158.914 79.8148C159.097 79.3691 159.609 79.1582 160.054 79.3437C160.5 79.5275 160.711 80.0387 160.526 80.4844L158.595 85.1313C158.826 85.8809 159.152 87.3258 158.562 88.1626C158.284 88.5591 157.853 88.7759 157.347 88.7759L157.348 88.7759Z" fill="#0C0421"/>
<path fill-rule="evenodd" clip-rule="evenodd" d="M203.654 88.7759C203.148 88.7759 202.717 88.5594 202.438 88.1626C201.849 87.3258 202.174 85.8809 202.405 85.1313L200.473 80.4844C200.289 80.0387 200.5 79.5275 200.944 79.3437C201.39 79.1582 201.901 79.3691 202.087 79.8151L204.143 84.7621C204.227 84.9641 204.232 85.188 204.157 85.3936C203.937 86.0066 203.828 86.6963 203.852 87.0293L208.653 87.0219C208.684 86.7237 208.611 86.1122 208.387 85.501C208.235 85.0841 208.162 84.6732 208.162 84.211L208.162 80.1499C208.162 79.6676 208.553 79.2768 209.035 79.2768C209.519 79.2768 209.909 79.668 209.909 80.1502V84.211C209.909 84.4659 209.945 84.6785 210.027 84.9007C210.16 85.2626 210.783 87.1187 210.065 88.1502C209.786 88.547 209.359 88.767 208.859 88.7688L203.655 88.7762H203.653L203.654 88.7759Z" fill="#0C0421"/>
<path fill-rule="evenodd" clip-rule="evenodd" d="M162.496 53.6304C162.014 53.6304 161.623 53.2392 161.623 52.7569L161.623 36.1818C161.623 35.6995 162.014 35.3084 162.496 35.3084C162.979 35.3084 163.37 35.6995 163.37 36.1818V52.7569C163.37 53.2389 162.979 53.6304 162.496 53.6304ZM146.618 70.2327C146.136 70.2327 145.745 69.8415 145.745 69.3596V34.7428C145.745 34.2607 146.136 33.8696 146.618 33.8696C147.1 33.8696 147.491 34.2608 147.491 34.7428L147.492 69.3596C147.492 69.8416 147.1 70.2327 146.618 70.2327Z" fill="#0C0421"/>
<path fill-rule="evenodd" clip-rule="evenodd" d="M154.557 26.1061C154.075 26.1061 153.683 25.715 153.683 25.233L153.683 21.5395C153.683 21.0575 154.075 20.6664 154.557 20.6664C155.039 20.6664 155.43 21.0575 155.43 21.5395V25.233C155.43 25.7153 155.039 26.1064 154.557 26.1061Z" fill="#0C0421"/>
<path fill-rule="evenodd" clip-rule="evenodd" d="M157.731 30.0783C157.831 30.0783 157.931 30.0839 158.032 30.0984C159.178 30.2477 160.042 31.2338 160.042 32.391V34.607C160.042 35.2494 160.564 35.7716 161.207 35.7716C161.851 35.7716 162.373 35.2495 162.373 34.6073V27.4131C162.373 26.7709 161.851 26.2488 161.207 26.2488H147.907C147.264 26.2488 146.742 26.7709 146.742 27.4134V33.1683C146.742 33.8105 147.264 34.3326 147.907 34.3326C148.549 34.3326 149.073 33.8105 149.073 33.1683V32.3913C149.073 31.2341 149.937 30.25 151.083 30.0987C152.23 29.9477 153.319 30.6754 153.618 31.7925C153.733 32.2203 154.118 32.5167 154.557 32.5167C154.997 32.5167 155.383 32.2203 155.497 31.7925C155.77 30.7737 156.7 30.0787 157.731 30.0787L157.731 30.0783ZM161.207 37.5179C159.602 37.5179 158.295 36.2117 158.295 34.607V32.3907C158.295 32.1031 158.09 31.8668 157.804 31.8285C157.518 31.7901 157.258 31.9668 157.184 32.2432C156.867 33.4332 155.786 34.2627 154.556 34.2627C153.328 34.2627 152.248 33.4329 151.931 32.2432C151.856 31.9665 151.596 31.7919 151.311 31.8285C151.025 31.8665 150.82 32.1031 150.82 32.3907V33.1677C150.82 34.7742 149.513 36.079 147.907 36.079C146.302 36.079 144.995 34.7746 144.995 33.1677V27.4128C144.995 25.8064 146.302 24.5016 147.906 24.5016H161.206C162.813 24.5016 164.119 25.8063 164.119 27.4128V34.607C164.119 36.2117 162.812 37.5182 161.206 37.5179H161.207Z" fill="#0C0421"/>
<path fill-rule="evenodd" clip-rule="evenodd" d="M164.297 67.2733C164.128 67.2733 163.955 67.224 163.804 67.1187C159.07 63.8673 157.967 59.8281 157.878 57.0138C157.78 53.979 158.802 51.7247 158.846 51.63C159.001 51.2935 159.352 51.0914 159.719 51.1262C159.896 51.1424 164.071 51.561 167.25 54.9141C167.583 55.2651 167.567 55.8165 167.217 56.1495C166.868 56.4808 166.315 56.466 165.982 56.1167C163.95 53.9698 161.374 53.2165 160.196 52.9728C159.532 54.9285 158.129 61.1021 164.794 65.6799C165.191 65.9528 165.292 66.4967 165.02 66.8953C164.849 67.1407 164.576 67.2738 164.297 67.2738L164.297 67.2733Z" fill="#0C0421"/>
<path fill-rule="evenodd" clip-rule="evenodd" d="M164.929 69.9579C161.247 69.9579 158.2 69.0045 155.846 67.1107C151.844 63.8938 151.367 59.1618 151.349 58.9617C151.314 58.5941 151.516 58.2449 151.853 58.0903C151.984 58.0283 155.126 56.6112 159.005 57.3062C159.48 57.3918 159.795 57.8449 159.709 58.3195C159.626 58.7944 159.17 59.1109 158.696 59.0254C156.287 58.5924 154.189 59.1145 153.196 59.4458C153.463 60.7283 154.338 63.6688 156.958 65.7647C159.551 67.8405 163.186 68.5995 167.762 68.0243C168.241 67.9641 168.678 68.3045 168.738 68.783C168.798 69.2615 168.459 69.698 167.981 69.7582C166.92 69.891 165.903 69.9582 164.93 69.9582L164.929 69.9579Z" fill="#0C0421"/>
<path fill-rule="evenodd" clip-rule="evenodd" d="M170.174 52.108C167.738 55.0354 163.39 61.3618 164.667 65.1512C165.227 66.8141 166.89 67.9167 169.607 68.43C169.805 68.468 169.987 68.4863 170.165 68.4863C170.36 68.4863 170.542 68.468 170.74 68.43C173.459 67.9167 175.12 66.8126 175.68 65.1512C176.959 61.3541 172.611 55.0335 170.175 52.108H170.174ZM170.187 70.2335H170.16C169.874 70.2317 169.587 70.2043 169.281 70.1462C165.899 69.5075 163.788 68.0137 163.011 65.7086C160.998 59.7334 169.176 50.5729 169.525 50.187C169.691 50.0032 169.927 49.8976 170.175 49.8976C170.42 49.8976 170.657 50.0032 170.822 50.187C171.172 50.5725 179.351 59.7338 177.336 65.7086C176.559 68.0139 174.449 69.5075 171.066 70.1462C170.761 70.2043 170.473 70.2317 170.188 70.2335H170.187Z" fill="#0C0421"/>
<path fill-rule="evenodd" clip-rule="evenodd" d="M176.049 67.2733C175.771 67.2733 175.498 67.1406 175.329 66.8948C175.054 66.4963 175.156 65.9524 175.553 65.6795C178.871 63.3998 180.611 60.4668 180.723 56.9588C180.78 55.2031 180.403 53.7494 180.145 52.9724C178.968 53.2181 176.395 53.9712 174.365 56.1164C174.034 56.4656 173.48 56.4804 173.129 56.1491C172.78 55.8161 172.765 55.265 173.097 54.9137C176.275 51.5606 180.453 51.142 180.627 51.1258C180.997 51.0931 181.346 51.2931 181.5 51.6296C181.544 51.724 182.566 53.9786 182.47 57.0135C182.379 59.8282 181.277 63.8672 176.542 67.1183C176.391 67.2222 176.218 67.2729 176.049 67.2729L176.049 67.2733Z" fill="#0C0421"/>
<path fill-rule="evenodd" clip-rule="evenodd" d="M175.418 69.9578C174.445 69.9578 173.428 69.8906 172.367 69.7578C171.889 69.6976 171.55 69.2611 171.61 68.7826C171.67 68.3041 172.107 67.9637 172.585 68.0239C177.162 68.5988 180.796 67.8401 183.39 65.7643C186.008 63.6702 186.883 60.7336 187.152 59.4472C186.153 59.1179 184.046 58.5956 181.652 59.025C181.177 59.1106 180.724 58.7941 180.638 58.3191C180.553 57.8442 180.868 57.3914 181.343 57.3058C185.223 56.6109 188.364 58.028 188.495 58.0899C188.831 58.2445 189.033 58.5938 188.999 58.9613C188.981 59.1613 188.504 63.8938 184.503 67.1103C182.147 69.0041 179.101 69.9578 175.418 69.9575L175.418 69.9578Z" fill="#0C0421"/>
<path fill-rule="evenodd" clip-rule="evenodd" d="M207.648 53.7075C207.166 53.7075 206.774 53.3163 206.774 52.8343V40.6407C206.774 39.4236 206.174 38.2755 205.168 37.5713C204.87 37.3622 204.58 37.1728 204.298 36.9872C202.943 36.0993 201.662 35.2607 201.309 33.3264C201.222 32.8515 201.536 32.3966 202.011 32.3111C202.486 32.2238 202.941 32.5385 203.027 33.0117C203.238 34.1597 203.898 34.6382 205.255 35.5261C205.548 35.7191 205.85 35.9155 206.171 36.1394C207.642 37.171 208.521 38.8539 208.521 40.6406L208.522 52.8343C208.522 53.3166 208.13 53.7077 207.648 53.7077L207.648 53.7075ZM185.626 59.0438C185.143 59.0438 184.752 58.6526 184.752 58.1706V40.6402C184.752 38.8535 185.631 37.1706 187.105 36.139C187.423 35.9152 187.725 35.7187 188.018 35.5258C189.376 34.6378 190.036 34.1594 190.247 33.0113C190.332 32.5381 190.787 32.2234 191.262 32.3107C191.737 32.3962 192.052 32.8511 191.965 33.326C191.612 35.2599 190.331 36.0989 188.975 36.9868C188.695 37.1724 188.404 37.3618 188.106 37.5709C187.1 38.275 186.499 39.4231 186.499 40.6403L186.499 58.1707C186.499 58.6527 186.108 59.0441 185.626 59.0438L185.626 59.0438Z" fill="#0C0421"/>
<path fill-rule="evenodd" clip-rule="evenodd" d="M207.648 45.6831H185.626C185.143 45.6831 184.752 45.2919 184.752 44.8099C184.752 44.3276 185.143 43.9365 185.626 43.9365H207.648C208.13 43.9365 208.521 44.3277 208.521 44.8099C208.521 45.292 208.13 45.6831 207.648 45.6831Z" fill="#0C0421"/>
<path fill-rule="evenodd" clip-rule="evenodd" d="M202.168 34.0429H191.105C190.623 34.0429 190.232 33.6518 190.232 33.1695L190.232 28.5901C190.232 28.1078 190.623 27.7167 191.105 27.7167C191.587 27.7167 191.979 28.1078 191.979 28.5901V32.2963H201.294V28.5901C201.294 28.1078 201.685 27.7167 202.167 27.7167C202.649 27.7167 203.041 28.1078 203.041 28.5901V33.1695C203.041 33.6518 202.649 34.0429 202.167 34.0429H202.168Z" fill="#0C0421"/>
<path fill-rule="evenodd" clip-rule="evenodd" d="M191.06 27.7165H202.213V24.8563H191.06V27.7165ZM202.353 29.4631H190.922C190.034 29.4631 189.313 28.741 189.313 27.8548L189.313 24.7183C189.313 23.8303 190.034 23.11 190.922 23.11H202.353C203.239 23.11 203.96 23.8306 203.96 24.7186V27.8551C203.96 28.741 203.239 29.4634 202.353 29.4634L202.353 29.4631Z" fill="#0C0421"/>
<path fill-rule="evenodd" clip-rule="evenodd" d="M199.517 24.8563C199.035 24.8563 198.644 24.4651 198.644 23.9832V18.241C198.644 17.1348 197.743 16.2342 196.636 16.2342C195.53 16.2342 194.63 17.1348 194.63 18.241V23.9832C194.63 24.4652 194.239 24.8566 193.756 24.8566C193.274 24.8566 192.883 24.4654 192.883 23.9832L192.883 18.241C192.883 16.1704 194.568 14.4875 196.637 14.4875C198.705 14.4875 200.39 16.1704 200.39 18.241V23.9832C200.39 24.4652 199.999 24.8566 199.517 24.8563H199.517Z" fill="#0C0421"/>
<path fill-rule="evenodd" clip-rule="evenodd" d="M213.062 61.9712C212.58 61.9712 212.189 61.5801 212.189 61.0978C212.189 60.614 212.58 60.2247 213.062 60.2247C213.719 60.2247 214.254 59.6899 214.254 59.0311C214.254 58.3742 213.719 57.8394 213.062 57.8394H193.37C192.713 57.8394 192.179 58.3742 192.179 59.0311C192.179 59.6896 192.713 60.2247 193.37 60.2247H195.437C195.919 60.2247 196.31 60.6141 196.31 61.0981C196.31 61.5804 195.919 61.9715 195.437 61.9715H193.371C191.749 61.9715 190.432 60.6526 190.432 59.0314C190.432 57.4122 191.749 56.093 193.37 56.093H213.062C214.683 56.093 216.002 57.4122 216.002 59.0314C216.002 60.6526 214.683 61.9715 213.062 61.9715L213.062 61.9712Z" fill="#0C0421"/>
<path fill-rule="evenodd" clip-rule="evenodd" d="M195.441 70.2328C192.681 70.2328 190.436 67.9877 190.436 65.2275C190.436 62.4691 192.681 60.2239 195.441 60.2239H213.066C213.548 60.2239 213.939 60.6133 213.939 61.0973C213.939 61.5796 213.548 61.9707 213.066 61.9707H195.441C193.643 61.9707 192.182 63.4318 192.182 65.2277C192.182 67.0254 193.643 68.4864 195.441 68.4864C195.923 68.4864 196.314 68.8775 196.314 69.3598C196.314 69.8418 195.923 70.2329 195.441 70.2329L195.441 70.2328Z" fill="#0C0421"/>
<path fill-rule="evenodd" clip-rule="evenodd" d="M213.062 70.2327C212.58 70.2327 212.189 69.8416 212.189 69.3596C212.189 68.8773 212.58 68.4862 213.062 68.4862C213.719 68.4862 214.254 67.9514 214.254 67.2945C214.254 66.6358 213.719 66.1009 213.062 66.1009H196.556C196.074 66.1009 195.683 65.7098 195.683 65.2278C195.683 64.7455 196.074 64.3544 196.556 64.3544H213.062C214.683 64.3544 216.002 65.6736 216.002 67.2948C216.002 68.914 214.683 70.2332 213.062 70.2332L213.062 70.2327Z" fill="#0C0421"/>
<path fill-rule="evenodd" clip-rule="evenodd" d="M213.062 66.1012C212.58 66.1012 212.189 65.71 212.189 65.228C212.189 64.7457 212.58 64.3546 213.062 64.3546C213.719 64.3546 214.254 63.8198 214.254 63.1629C214.254 62.506 213.719 61.9712 213.062 61.9712C212.58 61.9712 212.189 61.58 212.189 61.0977C212.189 60.614 212.58 60.2246 213.062 60.2246C214.683 60.2246 216 61.5417 216 63.163C216.001 64.7839 214.683 66.1013 213.062 66.1013L213.062 66.1012Z" fill="#0C0421"/>
<path fill-rule="evenodd" clip-rule="evenodd" d="M213.062 57.8397C212.58 57.8397 212.189 57.4485 212.189 56.9663C212.189 56.484 212.58 56.0928 213.062 56.0928C213.719 56.0928 214.254 55.558 214.254 54.9011C214.254 54.2424 213.719 53.7076 213.062 53.7076H193.37C192.713 53.7076 192.179 54.2424 192.179 54.9011C192.179 55.5578 192.713 56.0928 193.37 56.0928H195.437C195.919 56.0928 196.31 56.484 196.31 56.9663C196.31 57.4483 195.919 57.8397 195.437 57.8397H193.371C191.749 57.8397 190.432 56.5205 190.432 54.9013C190.432 53.2801 191.749 51.9612 193.37 51.9612H213.062C214.683 51.9612 216.002 53.2804 216.002 54.9016C216.002 56.5208 214.683 57.84 213.062 57.84L213.062 57.8397Z" fill="#0C0421"/>
<path d="M155.237 9.10076C160.763 14.9979 160.428 19.0191 158.311 21.0112C157.318 21.9458 155.932 22.413 154.558 22.413C153.183 22.413 151.797 21.9457 150.804 21.0112C147.093 17.5192 151.381 11.7514 153.922 9.05092C154.286 8.6639 154.905 8.69045 155.237 9.10048V9.10076ZM157.117 19.7418C158.544 18.3987 158.599 15.5096 154.558 10.9411C150.517 15.5096 150.571 18.3987 151.998 19.7418C152.653 20.3577 153.6 20.6657 154.558 20.6657C155.516 20.6657 156.462 20.3577 157.117 19.7418Z" fill="#0C0421"/>
<path d="M56.3975 113.933H63.6719C65.7962 113.933 67.6413 114.162 69.207 114.619C70.7728 115.076 72.0677 115.732 73.0918 116.587C74.1243 117.433 74.8903 118.466 75.3896 119.684C75.8975 120.895 76.1514 122.257 76.1514 123.772C76.1514 125.211 75.9017 126.544 75.4023 127.771C74.903 128.99 74.1413 130.048 73.1172 130.945C72.0931 131.834 70.7982 132.532 69.2324 133.04C67.6667 133.539 65.8216 133.789 63.6973 133.789L56.3975 133.776V113.933ZM64.6621 130.298C65.8639 130.298 66.9176 130.145 67.8232 129.841C68.7288 129.527 69.4821 129.087 70.083 128.52C70.6924 127.953 71.1494 127.268 71.4541 126.464C71.7588 125.66 71.9111 124.762 71.9111 123.772C71.9111 122.799 71.7588 121.923 71.4541 121.144C71.1494 120.357 70.6924 119.693 70.083 119.151C69.4821 118.601 68.7288 118.178 67.8232 117.882C66.9176 117.585 65.8639 117.437 64.6621 117.437H60.4219V130.298H64.6621ZM81.6992 116.752C81.3268 116.752 80.9883 116.701 80.6836 116.599C80.3874 116.489 80.1335 116.345 79.9219 116.168C79.7103 115.982 79.5452 115.77 79.4268 115.533C79.3167 115.288 79.2617 115.029 79.2617 114.759C79.2617 114.479 79.3167 114.221 79.4268 113.984C79.5452 113.739 79.7103 113.527 79.9219 113.349C80.1335 113.172 80.3874 113.032 80.6836 112.93C80.9883 112.82 81.3268 112.765 81.6992 112.765C82.0801 112.765 82.4186 112.82 82.7148 112.93C83.0195 113.032 83.2777 113.172 83.4893 113.349C83.7008 113.527 83.8617 113.739 83.9717 113.984C84.0902 114.221 84.1494 114.479 84.1494 114.759C84.1494 115.029 84.0902 115.288 83.9717 115.533C83.8617 115.77 83.7008 115.982 83.4893 116.168C83.2777 116.345 83.0195 116.489 82.7148 116.599C82.4186 116.701 82.0801 116.752 81.6992 116.752ZM79.8203 118.796H83.5781V133.776H79.8203V118.796ZM87.6914 129.053C87.6914 128.334 87.848 127.678 88.1611 127.086C88.4743 126.493 88.944 125.985 89.5703 125.562C90.1966 125.131 90.9753 124.801 91.9062 124.572C92.8457 124.335 93.9375 124.217 95.1816 124.217C96.1042 124.217 97.0732 124.284 98.0889 124.42C99.113 124.555 100.167 124.762 101.25 125.042C101.208 124.568 101.064 124.132 100.818 123.734C100.573 123.328 100.23 122.981 99.79 122.693C99.3584 122.397 98.8337 122.168 98.2158 122.008C97.6064 121.847 96.9124 121.766 96.1338 121.766C95.7106 121.766 95.2451 121.792 94.7373 121.843C94.2295 121.893 93.7048 121.969 93.1631 122.071C92.6214 122.173 92.084 122.3 91.5508 122.452C91.026 122.604 90.5352 122.786 90.0781 122.998L88.9355 119.913C89.5026 119.71 90.1077 119.524 90.751 119.354C91.4027 119.185 92.0671 119.041 92.7441 118.923C93.4212 118.796 94.0983 118.698 94.7754 118.631C95.4525 118.563 96.1084 118.529 96.7432 118.529C99.5446 118.529 101.627 119.244 102.989 120.675C104.352 122.105 105.033 124.297 105.033 127.251V133.776H101.275V132.367C100.886 132.595 100.459 132.811 99.9932 133.014C99.5361 133.218 99.0368 133.395 98.4951 133.548C97.9535 133.7 97.3695 133.818 96.7432 133.903C96.1253 133.996 95.4694 134.043 94.7754 134.043C93.6074 134.043 92.5791 133.916 91.6904 133.662C90.8102 133.408 90.0739 133.057 89.4814 132.608C88.889 132.16 88.4404 131.635 88.1357 131.034C87.8395 130.425 87.6914 129.764 87.6914 129.053ZM91.6523 128.927C91.6523 129.172 91.7158 129.409 91.8428 129.637C91.9697 129.858 92.1729 130.056 92.4521 130.234C92.7314 130.403 93.0869 130.543 93.5186 130.653C93.9587 130.755 94.4876 130.805 95.1055 130.805C95.7656 130.805 96.4046 130.746 97.0225 130.628C97.6403 130.509 98.2158 130.353 98.749 130.158C99.2822 129.963 99.7646 129.739 100.196 129.485C100.628 129.231 100.988 128.969 101.275 128.698V128.038C100.7 127.877 100.129 127.742 99.5615 127.632C99.0029 127.522 98.4655 127.437 97.9492 127.378C97.4414 127.31 96.959 127.263 96.502 127.238C96.0534 127.213 95.6598 127.2 95.3213 127.2C94.6188 127.2 94.0348 127.247 93.5693 127.34C93.1038 127.433 92.7272 127.56 92.4395 127.72C92.1517 127.873 91.9486 128.055 91.8301 128.266C91.7116 128.478 91.6523 128.698 91.6523 128.927ZM110.606 129.18C111.622 129.79 112.739 130.238 113.958 130.526C115.177 130.814 116.425 130.958 117.703 130.958C118.566 130.958 119.286 130.899 119.861 130.78C120.437 130.662 120.898 130.509 121.245 130.323C121.592 130.137 121.838 129.925 121.981 129.688C122.125 129.451 122.197 129.21 122.197 128.965C122.197 128.609 122.041 128.304 121.728 128.051C121.423 127.797 120.915 127.67 120.204 127.67C119.874 127.67 119.519 127.691 119.138 127.733C118.757 127.775 118.355 127.822 117.932 127.873C117.517 127.915 117.081 127.957 116.624 128C116.175 128.042 115.718 128.063 115.253 128.063C114.237 128.063 113.37 127.953 112.65 127.733C111.939 127.513 111.36 127.213 110.911 126.832C110.463 126.451 110.137 126.002 109.934 125.486C109.73 124.961 109.629 124.399 109.629 123.798C109.629 123.036 109.807 122.333 110.162 121.69C110.518 121.047 111.025 120.493 111.686 120.027C112.346 119.553 113.141 119.185 114.072 118.923C115.012 118.66 116.057 118.529 117.208 118.529C117.809 118.529 118.435 118.567 119.087 118.643C119.747 118.711 120.395 118.804 121.029 118.923C121.664 119.041 122.273 119.181 122.857 119.342C123.441 119.494 123.958 119.659 124.406 119.837L123.226 122.757C122.269 122.401 121.313 122.122 120.356 121.919C119.409 121.707 118.431 121.601 117.424 121.601C116.721 121.601 116.125 121.656 115.634 121.766C115.151 121.868 114.758 122.008 114.453 122.185C114.148 122.355 113.924 122.553 113.78 122.782C113.645 123.002 113.577 123.235 113.577 123.48C113.577 123.658 113.611 123.819 113.679 123.963C113.755 124.107 113.873 124.233 114.034 124.344C114.203 124.445 114.419 124.525 114.682 124.585C114.952 124.635 115.283 124.661 115.672 124.661C116.027 124.661 116.404 124.64 116.802 124.597C117.2 124.555 117.614 124.513 118.046 124.47C118.478 124.42 118.922 124.373 119.379 124.331C119.844 124.288 120.318 124.267 120.801 124.267C121.698 124.267 122.481 124.373 123.149 124.585C123.826 124.796 124.385 125.093 124.825 125.473C125.265 125.854 125.595 126.303 125.815 126.819C126.035 127.335 126.146 127.898 126.146 128.508C126.146 129.295 125.964 130.027 125.6 130.704C125.236 131.381 124.694 131.969 123.975 132.469C123.255 132.959 122.358 133.344 121.283 133.624C120.217 133.903 118.981 134.043 117.576 134.043C116.713 134.043 115.879 133.988 115.075 133.878C114.271 133.776 113.505 133.636 112.777 133.459C112.049 133.273 111.364 133.057 110.721 132.811C110.086 132.566 109.506 132.303 108.981 132.024L110.606 129.18ZM137.457 126.235C137.457 125.219 137.664 124.25 138.079 123.328C138.494 122.397 139.09 121.576 139.869 120.865C140.648 120.154 141.6 119.587 142.726 119.164C143.86 118.741 145.146 118.529 146.585 118.529C148.015 118.529 149.302 118.745 150.444 119.177C151.595 119.6 152.569 120.184 153.364 120.928C154.168 121.673 154.782 122.549 155.205 123.556C155.637 124.564 155.853 125.643 155.853 126.794C155.853 126.938 155.848 127.094 155.84 127.263C155.84 127.424 155.831 127.572 155.814 127.708H141.646C141.807 128.156 142.065 128.567 142.421 128.939C142.785 129.312 143.238 129.633 143.779 129.904C144.321 130.175 144.947 130.386 145.658 130.539C146.369 130.683 147.156 130.755 148.02 130.755C148.883 130.755 149.742 130.666 150.597 130.488C151.451 130.302 152.268 130.069 153.047 129.79L154.316 132.659C153.826 132.887 153.326 133.091 152.818 133.268C152.319 133.438 151.794 133.581 151.244 133.7C150.702 133.81 150.131 133.895 149.53 133.954C148.938 134.013 148.312 134.043 147.651 134.043C145.967 134.043 144.49 133.84 143.221 133.433C141.951 133.027 140.889 132.473 140.034 131.77C139.179 131.068 138.536 130.243 138.104 129.295C137.673 128.347 137.457 127.327 137.457 126.235ZM151.866 124.775C151.731 124.36 151.519 123.975 151.231 123.62C150.952 123.256 150.601 122.943 150.178 122.68C149.755 122.41 149.264 122.198 148.705 122.046C148.146 121.893 147.533 121.817 146.864 121.817C146.153 121.817 145.506 121.898 144.922 122.058C144.338 122.219 143.826 122.435 143.386 122.706C142.946 122.977 142.577 123.29 142.281 123.645C141.993 124.001 141.782 124.377 141.646 124.775H151.866ZM160.499 129.18C161.515 129.79 162.632 130.238 163.851 130.526C165.069 130.814 166.318 130.958 167.596 130.958C168.459 130.958 169.178 130.899 169.754 130.78C170.329 130.662 170.791 130.509 171.138 130.323C171.485 130.137 171.73 129.925 171.874 129.688C172.018 129.451 172.09 129.21 172.09 128.965C172.09 128.609 171.933 128.304 171.62 128.051C171.315 127.797 170.808 127.67 170.097 127.67C169.767 127.67 169.411 127.691 169.03 127.733C168.649 127.775 168.247 127.822 167.824 127.873C167.41 127.915 166.974 127.957 166.517 128C166.068 128.042 165.611 128.063 165.146 128.063C164.13 128.063 163.262 127.953 162.543 127.733C161.832 127.513 161.252 127.213 160.804 126.832C160.355 126.451 160.029 126.002 159.826 125.486C159.623 124.961 159.521 124.399 159.521 123.798C159.521 123.036 159.699 122.333 160.055 121.69C160.41 121.047 160.918 120.493 161.578 120.027C162.238 119.553 163.034 119.185 163.965 118.923C164.904 118.66 165.95 118.529 167.101 118.529C167.701 118.529 168.328 118.567 168.979 118.643C169.64 118.711 170.287 118.804 170.922 118.923C171.557 119.041 172.166 119.181 172.75 119.342C173.334 119.494 173.85 119.659 174.299 119.837L173.118 122.757C172.162 122.401 171.205 122.122 170.249 121.919C169.301 121.707 168.324 121.601 167.316 121.601C166.614 121.601 166.017 121.656 165.526 121.766C165.044 121.868 164.65 122.008 164.346 122.185C164.041 122.355 163.817 122.553 163.673 122.782C163.537 123.002 163.47 123.235 163.47 123.48C163.47 123.658 163.504 123.819 163.571 123.963C163.647 124.107 163.766 124.233 163.927 124.344C164.096 124.445 164.312 124.525 164.574 124.585C164.845 124.635 165.175 124.661 165.564 124.661C165.92 124.661 166.297 124.64 166.694 124.597C167.092 124.555 167.507 124.513 167.938 124.47C168.37 124.42 168.814 124.373 169.271 124.331C169.737 124.288 170.211 124.267 170.693 124.267C171.59 124.267 172.373 124.373 173.042 124.585C173.719 124.796 174.278 125.093 174.718 125.473C175.158 125.854 175.488 126.303 175.708 126.819C175.928 127.335 176.038 127.898 176.038 128.508C176.038 129.295 175.856 130.027 175.492 130.704C175.128 131.381 174.587 131.969 173.867 132.469C173.148 132.959 172.251 133.344 171.176 133.624C170.109 133.903 168.874 134.043 167.469 134.043C166.605 134.043 165.772 133.988 164.968 133.878C164.164 133.776 163.398 133.636 162.67 133.459C161.942 133.273 161.257 133.057 160.613 132.811C159.979 132.566 159.399 132.303 158.874 132.024L160.499 129.18ZM183.084 139.895H179.326V118.796H183.084V120.205C183.414 119.976 183.803 119.76 184.252 119.557C184.701 119.354 185.183 119.177 185.699 119.024C186.215 118.872 186.749 118.753 187.299 118.669C187.849 118.576 188.399 118.529 188.949 118.529C190.219 118.529 191.382 118.715 192.44 119.088C193.507 119.46 194.421 119.985 195.183 120.662C195.944 121.339 196.537 122.151 196.96 123.099C197.392 124.039 197.607 125.08 197.607 126.222C197.607 127.416 197.383 128.495 196.935 129.46C196.486 130.416 195.864 131.237 195.068 131.923C194.281 132.6 193.342 133.124 192.25 133.497C191.167 133.861 189.99 134.043 188.721 134.043C188.179 134.043 187.642 134.009 187.108 133.941C186.584 133.873 186.076 133.78 185.585 133.662C185.103 133.543 184.646 133.404 184.214 133.243C183.791 133.074 183.414 132.892 183.084 132.697V139.895ZM183.084 129.066C183.465 129.371 183.867 129.629 184.29 129.841C184.713 130.052 185.145 130.226 185.585 130.361C186.025 130.497 186.469 130.598 186.918 130.666C187.367 130.725 187.802 130.755 188.226 130.755C189.089 130.755 189.855 130.64 190.523 130.412C191.201 130.175 191.768 129.853 192.225 129.447C192.69 129.041 193.046 128.563 193.291 128.012C193.536 127.462 193.659 126.866 193.659 126.222C193.659 125.622 193.536 125.054 193.291 124.521C193.054 123.988 192.707 123.523 192.25 123.125C191.801 122.719 191.256 122.401 190.612 122.173C189.978 121.936 189.262 121.817 188.467 121.817C187.959 121.817 187.451 121.868 186.943 121.969C186.436 122.063 185.945 122.198 185.471 122.376C185.005 122.553 184.565 122.769 184.15 123.023C183.744 123.277 183.389 123.561 183.084 123.874V129.066ZM200.451 126.235C200.451 125.219 200.659 124.25 201.073 123.328C201.488 122.397 202.085 121.576 202.863 120.865C203.642 120.154 204.594 119.587 205.72 119.164C206.854 118.741 208.14 118.529 209.579 118.529C211.009 118.529 212.296 118.745 213.438 119.177C214.59 119.6 215.563 120.184 216.358 120.928C217.162 121.673 217.776 122.549 218.199 123.556C218.631 124.564 218.847 125.643 218.847 126.794C218.847 126.938 218.842 127.094 218.834 127.263C218.834 127.424 218.826 127.572 218.809 127.708H204.641C204.801 128.156 205.06 128.567 205.415 128.939C205.779 129.312 206.232 129.633 206.773 129.904C207.315 130.175 207.941 130.386 208.652 130.539C209.363 130.683 210.15 130.755 211.014 130.755C211.877 130.755 212.736 130.666 213.591 130.488C214.446 130.302 215.262 130.069 216.041 129.79L217.311 132.659C216.82 132.887 216.32 133.091 215.812 133.268C215.313 133.438 214.788 133.581 214.238 133.7C213.697 133.81 213.125 133.895 212.524 133.954C211.932 134.013 211.306 134.043 210.646 134.043C208.961 134.043 207.484 133.84 206.215 133.433C204.945 133.027 203.883 132.473 203.028 131.77C202.174 131.068 201.53 130.243 201.099 129.295C200.667 128.347 200.451 127.327 200.451 126.235ZM214.86 124.775C214.725 124.36 214.513 123.975 214.226 123.62C213.946 123.256 213.595 122.943 213.172 122.68C212.749 122.41 212.258 122.198 211.699 122.046C211.141 121.893 210.527 121.817 209.858 121.817C209.147 121.817 208.5 121.898 207.916 122.058C207.332 122.219 206.82 122.435 206.38 122.706C205.94 122.977 205.572 123.29 205.275 123.645C204.988 124.001 204.776 124.377 204.641 124.775H214.86ZM221.995 126.324C221.995 125.224 222.194 124.2 222.592 123.252C222.998 122.295 223.586 121.47 224.356 120.776C225.135 120.074 226.083 119.524 227.2 119.126C228.326 118.728 229.608 118.529 231.047 118.529C231.673 118.529 232.304 118.567 232.938 118.643C233.573 118.719 234.183 118.83 234.767 118.973C235.359 119.109 235.913 119.274 236.43 119.469C236.946 119.655 237.395 119.862 237.775 120.091L236.036 122.922C235.215 122.541 234.437 122.261 233.7 122.084C232.972 121.906 232.232 121.817 231.479 121.817C230.615 121.817 229.841 121.931 229.155 122.16C228.47 122.38 227.886 122.693 227.403 123.099C226.929 123.497 226.565 123.971 226.312 124.521C226.066 125.063 225.943 125.655 225.943 126.299C225.943 126.942 226.075 127.538 226.337 128.089C226.608 128.63 226.984 129.1 227.467 129.498C227.958 129.887 228.546 130.196 229.231 130.425C229.925 130.645 230.696 130.755 231.542 130.755C232.473 130.755 233.349 130.623 234.17 130.361C234.999 130.099 235.77 129.747 236.48 129.307L238.22 132.138C237.771 132.409 237.285 132.663 236.76 132.9C236.235 133.129 235.672 133.328 235.071 133.497C234.479 133.666 233.853 133.797 233.192 133.89C232.541 133.992 231.864 134.043 231.161 134.043C229.731 134.043 228.449 133.848 227.314 133.459C226.18 133.069 225.22 132.532 224.433 131.846C223.646 131.152 223.04 130.336 222.617 129.396C222.202 128.457 221.995 127.433 221.995 126.324ZM244.25 116.752C243.878 116.752 243.539 116.701 243.234 116.599C242.938 116.489 242.684 116.345 242.473 116.168C242.261 115.982 242.096 115.77 241.978 115.533C241.868 115.288 241.812 115.029 241.812 114.759C241.812 114.479 241.868 114.221 241.978 113.984C242.096 113.739 242.261 113.527 242.473 113.349C242.684 113.172 242.938 113.032 243.234 112.93C243.539 112.82 243.878 112.765 244.25 112.765C244.631 112.765 244.969 112.82 245.266 112.93C245.57 113.032 245.828 113.172 246.04 113.349C246.252 113.527 246.412 113.739 246.522 113.984C246.641 114.221 246.7 114.479 246.7 114.759C246.7 115.029 246.641 115.288 246.522 115.533C246.412 115.77 246.252 115.982 246.04 116.168C245.828 116.345 245.57 116.489 245.266 116.599C244.969 116.701 244.631 116.752 244.25 116.752ZM242.371 118.796H246.129V133.776H242.371V118.796ZM250.242 129.053C250.242 128.334 250.399 127.678 250.712 127.086C251.025 126.493 251.495 125.985 252.121 125.562C252.747 125.131 253.526 124.801 254.457 124.572C255.396 124.335 256.488 124.217 257.732 124.217C258.655 124.217 259.624 124.284 260.64 124.42C261.664 124.555 262.717 124.762 263.801 125.042C263.758 124.568 263.615 124.132 263.369 123.734C263.124 123.328 262.781 122.981 262.341 122.693C261.909 122.397 261.384 122.168 260.767 122.008C260.157 121.847 259.463 121.766 258.685 121.766C258.261 121.766 257.796 121.792 257.288 121.843C256.78 121.893 256.256 121.969 255.714 122.071C255.172 122.173 254.635 122.3 254.102 122.452C253.577 122.604 253.086 122.786 252.629 122.998L251.486 119.913C252.053 119.71 252.659 119.524 253.302 119.354C253.953 119.185 254.618 119.041 255.295 118.923C255.972 118.796 256.649 118.698 257.326 118.631C258.003 118.563 258.659 118.529 259.294 118.529C262.095 118.529 264.177 119.244 265.54 120.675C266.903 122.105 267.584 124.297 267.584 127.251V133.776H263.826V132.367C263.437 132.595 263.009 132.811 262.544 133.014C262.087 133.218 261.588 133.395 261.046 133.548C260.504 133.7 259.92 133.818 259.294 133.903C258.676 133.996 258.02 134.043 257.326 134.043C256.158 134.043 255.13 133.916 254.241 133.662C253.361 133.408 252.625 133.057 252.032 132.608C251.44 132.16 250.991 131.635 250.687 131.034C250.39 130.425 250.242 129.764 250.242 129.053ZM254.203 128.927C254.203 129.172 254.267 129.409 254.394 129.637C254.521 129.858 254.724 130.056 255.003 130.234C255.282 130.403 255.638 130.543 256.069 130.653C256.509 130.755 257.038 130.805 257.656 130.805C258.316 130.805 258.955 130.746 259.573 130.628C260.191 130.509 260.767 130.353 261.3 130.158C261.833 129.963 262.315 129.739 262.747 129.485C263.179 129.231 263.538 128.969 263.826 128.698V128.038C263.251 127.877 262.679 127.742 262.112 127.632C261.554 127.522 261.016 127.437 260.5 127.378C259.992 127.31 259.51 127.263 259.053 127.238C258.604 127.213 258.211 127.2 257.872 127.2C257.17 127.2 256.586 127.247 256.12 127.34C255.655 127.433 255.278 127.56 254.99 127.72C254.702 127.873 254.499 128.055 254.381 128.266C254.262 128.478 254.203 128.698 254.203 128.927ZM274.541 116.752C274.169 116.752 273.83 116.701 273.525 116.599C273.229 116.489 272.975 116.345 272.764 116.168C272.552 115.982 272.387 115.77 272.269 115.533C272.159 115.288 272.104 115.029 272.104 114.759C272.104 114.479 272.159 114.221 272.269 113.984C272.387 113.739 272.552 113.527 272.764 113.349C272.975 113.172 273.229 113.032 273.525 112.93C273.83 112.82 274.169 112.765 274.541 112.765C274.922 112.765 275.26 112.82 275.557 112.93C275.861 113.032 276.119 113.172 276.331 113.349C276.543 113.527 276.703 113.739 276.813 113.984C276.932 114.221 276.991 114.479 276.991 114.759C276.991 115.029 276.932 115.288 276.813 115.533C276.703 115.77 276.543 115.982 276.331 116.168C276.119 116.345 275.861 116.489 275.557 116.599C275.26 116.701 274.922 116.752 274.541 116.752ZM272.662 118.796H276.42V133.776H272.662V118.796ZM281.841 129.18C282.856 129.79 283.974 130.238 285.192 130.526C286.411 130.814 287.66 130.958 288.938 130.958C289.801 130.958 290.52 130.899 291.096 130.78C291.671 130.662 292.132 130.509 292.479 130.323C292.826 130.137 293.072 129.925 293.216 129.688C293.36 129.451 293.432 129.21 293.432 128.965C293.432 128.609 293.275 128.304 292.962 128.051C292.657 127.797 292.149 127.67 291.438 127.67C291.108 127.67 290.753 127.691 290.372 127.733C289.991 127.775 289.589 127.822 289.166 127.873C288.751 127.915 288.315 127.957 287.858 128C287.41 128.042 286.953 128.063 286.487 128.063C285.472 128.063 284.604 127.953 283.885 127.733C283.174 127.513 282.594 127.213 282.146 126.832C281.697 126.451 281.371 126.002 281.168 125.486C280.965 124.961 280.863 124.399 280.863 123.798C280.863 123.036 281.041 122.333 281.396 121.69C281.752 121.047 282.26 120.493 282.92 120.027C283.58 119.553 284.376 119.185 285.307 118.923C286.246 118.66 287.291 118.529 288.442 118.529C289.043 118.529 289.67 118.567 290.321 118.643C290.981 118.711 291.629 118.804 292.264 118.923C292.898 119.041 293.508 119.181 294.092 119.342C294.676 119.494 295.192 119.659 295.641 119.837L294.46 122.757C293.504 122.401 292.547 122.122 291.591 121.919C290.643 121.707 289.665 121.601 288.658 121.601C287.956 121.601 287.359 121.656 286.868 121.766C286.386 121.868 285.992 122.008 285.688 122.185C285.383 122.355 285.159 122.553 285.015 122.782C284.879 123.002 284.812 123.235 284.812 123.48C284.812 123.658 284.845 123.819 284.913 123.963C284.989 124.107 285.108 124.233 285.269 124.344C285.438 124.445 285.654 124.525 285.916 124.585C286.187 124.635 286.517 124.661 286.906 124.661C287.262 124.661 287.638 124.64 288.036 124.597C288.434 124.555 288.849 124.513 289.28 124.47C289.712 124.42 290.156 124.373 290.613 124.331C291.079 124.288 291.553 124.267 292.035 124.267C292.932 124.267 293.715 124.373 294.384 124.585C295.061 124.796 295.619 125.093 296.06 125.473C296.5 125.854 296.83 126.303 297.05 126.819C297.27 127.335 297.38 127.898 297.38 128.508C297.38 129.295 297.198 130.027 296.834 130.704C296.47 131.381 295.928 131.969 295.209 132.469C294.49 132.959 293.592 133.344 292.518 133.624C291.451 133.903 290.215 134.043 288.811 134.043C287.947 134.043 287.114 133.988 286.31 133.878C285.506 133.776 284.74 133.636 284.012 133.459C283.284 133.273 282.598 133.057 281.955 132.811C281.32 132.566 280.741 132.303 280.216 132.024L281.841 129.18Z" fill="#0C0421"/>
<path d="M175.608 160.155C175.663 159.65 176.337 159.65 176.392 160.155L176.854 164.398C177.451 169.876 181.418 174.196 186.449 174.846L190.346 175.349C190.81 175.409 190.81 176.143 190.346 176.203L186.449 176.707C181.418 177.357 177.451 181.676 176.854 187.154L176.392 191.397C176.337 191.903 175.663 191.903 175.608 191.397L175.146 187.154C174.549 181.676 170.582 177.357 165.551 176.707L161.654 176.203C161.19 176.143 161.19 175.409 161.654 175.349L165.551 174.846C170.582 174.196 174.549 169.876 175.146 164.398L175.608 160.155Z" fill="#0C0421"/>
</svg>
