<svg width="352" height="231" viewBox="0 0 352 231" fill="none" xmlns="http://www.w3.org/2000/svg">
<circle cx="160.652" cy="32.7761" r="32" fill="#CAD4FA"/>
<path d="M158.844 8.77612C158.024 8.77612 157.238 9.10162 156.659 9.68139C156.079 10.2612 155.753 11.0476 155.753 11.8674C155.753 12.6873 156.079 13.4734 156.659 14.0532C157.238 14.6329 158.024 14.9587 158.844 14.9587C159.664 14.9587 160.45 14.633 161.03 14.0532C161.61 13.4734 161.936 12.6873 161.936 11.8674C161.935 11.048 161.609 10.2621 161.029 9.68263C160.45 9.10286 159.664 8.77705 158.844 8.77612ZM158.844 13.1403C158.507 13.1403 158.183 13.006 157.944 12.7675C157.705 12.5287 157.571 12.205 157.571 11.8674C157.571 11.5297 157.705 11.2061 157.944 10.9672C158.183 10.7284 158.507 10.5945 158.844 10.5945C159.182 10.5945 159.506 10.7284 159.744 10.9672C159.983 11.2061 160.117 11.5297 160.117 11.8674C160.117 12.2047 159.983 12.5284 159.744 12.7669C159.505 13.0057 159.182 13.14 158.844 13.1403Z" fill="#0C0421"/>
<path d="M206.486 22.2325C206.486 23.0523 206.812 23.8385 207.392 24.4183C207.971 24.9981 208.758 25.3239 209.578 25.3239C210.397 25.3239 211.184 24.9981 211.763 24.4183C212.343 23.8385 212.669 23.0524 212.669 22.2325C212.669 21.4127 212.343 20.6263 211.763 20.0465C211.184 19.4667 210.397 19.1412 209.578 19.1412C208.758 19.1421 207.972 19.4679 207.393 20.0477C206.813 20.6272 206.487 21.4131 206.486 22.2325ZM209.578 20.9597C209.915 20.9597 210.239 21.0936 210.478 21.3325C210.717 21.5713 210.851 21.895 210.851 22.2326C210.851 22.5703 210.717 22.8939 210.478 23.1327C210.239 23.3713 209.915 23.5055 209.578 23.5055C209.24 23.5055 208.916 23.3713 208.677 23.1327C208.439 22.8939 208.305 22.5703 208.305 22.2326C208.305 21.895 208.439 21.5716 208.678 21.3328C208.917 21.0943 209.24 20.96 209.578 20.9597Z" fill="#0C0421"/>
<path d="M145.923 32.4319C146.164 32.4325 146.396 32.3364 146.566 32.1658L148.619 30.1134C148.971 29.7579 148.97 29.1842 148.616 28.8303C148.262 28.4766 147.688 28.4751 147.333 28.8275L145.28 30.8799C145.02 31.1399 144.942 31.5309 145.083 31.8707C145.224 32.2104 145.555 32.4319 145.923 32.4319Z" fill="#0C0421"/>
<path d="M140.279 38.0762C140.521 38.0765 140.752 37.9808 140.922 37.8098L142.975 35.7575C143.322 35.4014 143.319 34.8319 142.967 34.48C142.615 34.1279 142.045 34.1242 141.689 34.4718L139.637 36.5239C139.377 36.7839 139.299 37.1752 139.439 37.5149C139.58 37.8546 139.912 38.0762 140.279 38.0762Z" fill="#0C0421"/>
<path d="M141.717 32.1371C142.073 32.4896 142.646 32.4884 143 32.1344C143.354 31.7804 143.356 31.207 143.003 30.8515L140.95 28.7992C140.78 28.6273 140.549 28.5306 140.307 28.53C140.065 28.5294 139.833 28.6252 139.662 28.7964C139.491 28.9674 139.395 29.1995 139.395 29.4414C139.396 29.6832 139.493 29.9148 139.665 30.0851L141.717 32.1371Z" fill="#0C0421"/>
<path d="M146.595 34.4421C146.425 34.2703 146.193 34.1736 145.951 34.173C145.709 34.1724 145.477 34.2681 145.306 34.4394C145.135 34.6103 145.04 34.8425 145.04 35.0843C145.041 35.3262 145.138 35.5577 145.309 35.728L147.361 37.7807L147.362 37.7804C147.717 38.1356 148.292 38.1356 148.648 37.7804C149.003 37.4252 149.003 36.8497 148.647 36.4945L146.595 34.4421Z" fill="#0C0421"/>
<path d="M192.166 15.3166C191.809 14.969 191.24 14.9726 190.888 15.3248C190.536 15.6766 190.532 16.2461 190.88 16.6022L192.802 18.5245C192.972 18.6988 193.204 18.7976 193.448 18.7991C193.691 18.8006 193.924 18.7046 194.096 18.5327C194.268 18.3609 194.364 18.1272 194.362 17.8842C194.361 17.6411 194.262 17.4086 194.088 17.2389L192.166 15.3166Z" fill="#0C0421"/>
<path d="M186.879 10.0299C186.524 9.67467 185.948 9.67467 185.593 10.0296C185.238 10.3848 185.238 10.9606 185.593 11.3155L187.515 13.2378L187.515 13.2381C187.87 13.5906 188.444 13.5893 188.798 13.2354C189.152 12.8814 189.153 12.308 188.801 11.9525L186.879 10.0299Z" fill="#0C0421"/>
<path d="M194.115 10.0578C193.759 9.7029 193.184 9.7029 192.829 10.0578L190.906 11.9793C190.736 12.1499 190.64 12.3811 190.64 12.6224C190.64 12.8633 190.736 13.0946 190.906 13.2652C191.261 13.6204 191.837 13.6204 192.192 13.2652L194.114 11.3429H194.115C194.469 10.988 194.469 10.4128 194.115 10.0579L194.115 10.0578Z" fill="#0C0421"/>
<path d="M187.542 15.3429L185.62 17.2653C185.448 17.4356 185.351 17.6671 185.351 17.909C185.35 18.1508 185.446 18.383 185.617 18.5539C185.788 18.7248 186.02 18.8209 186.262 18.8203C186.504 18.8197 186.736 18.723 186.906 18.5512L188.828 16.6288C189.183 16.2736 189.183 15.6981 188.828 15.3429C188.473 14.9877 187.897 14.9877 187.542 15.3429Z" fill="#0C0421"/>
<path d="M161.126 41.5474C160.974 41.7359 160.904 41.9772 160.931 42.2178C160.957 42.4584 161.079 42.6782 161.268 42.8288C161.458 42.9797 161.699 43.0485 161.94 43.0203C162.18 42.9925 162.399 42.8697 162.549 42.6794C162.778 42.3918 163.039 42.1217 163.316 41.8363C164.287 40.8316 165.39 39.6927 165.39 37.4457C165.39 35.1988 164.287 34.0601 163.316 33.0555C162.443 32.1532 161.753 31.4408 161.753 29.9293C161.753 28.4179 162.442 27.706 163.316 26.8038C163.549 26.5631 163.79 26.3137 164.021 26.0428H164.021C164.185 25.8606 164.269 25.6197 164.253 25.3751C164.237 25.1302 164.123 24.9023 163.936 24.7432C163.75 24.5838 163.507 24.5065 163.263 24.529C163.019 24.5514 162.794 24.6714 162.639 24.862C162.444 25.0899 162.233 25.3081 162.009 25.5394C161.037 26.5437 159.935 27.6824 159.935 29.9293C159.935 32.1763 161.037 33.3149 162.009 34.3199C162.882 35.2221 163.571 35.9346 163.571 37.4457C163.571 38.9569 162.882 39.6696 162.009 40.5719C161.714 40.8762 161.41 41.1907 161.126 41.5474Z" fill="#0C0421"/>
<path d="M173.218 35.3654C173.067 35.5539 172.997 35.7952 173.023 36.0358C173.05 36.2764 173.171 36.4962 173.361 36.6468C173.55 36.7977 173.792 36.8665 174.032 36.8383C174.273 36.8104 174.492 36.6877 174.642 36.4974C174.87 36.2098 175.131 35.9397 175.408 35.6543C176.38 34.6496 177.482 33.5107 177.482 31.2637C177.482 29.0167 176.38 27.8781 175.408 26.8735C174.535 25.9712 173.845 25.2587 173.845 23.7473C173.845 22.2359 174.535 21.524 175.408 20.6218C175.641 20.3811 175.882 20.1317 176.114 19.8608H176.114C176.278 19.6786 176.362 19.4377 176.345 19.1931C176.329 18.9482 176.215 18.7203 176.029 18.5612C175.842 18.4018 175.599 18.3245 175.355 18.3469C175.111 18.3694 174.886 18.4894 174.732 18.68C174.537 18.9079 174.326 19.1261 174.102 19.3574C173.13 20.3617 172.028 21.5007 172.028 23.7473C172.028 25.9943 173.13 27.1329 174.102 28.1379C174.975 29.0401 175.665 29.7526 175.665 31.2637C175.665 32.7748 174.975 33.4876 174.102 34.3899C173.807 34.6941 173.502 35.0087 173.218 35.3654Z" fill="#0C0421"/>
<path d="M185.311 41.5474C185.159 41.7359 185.089 41.9772 185.116 42.2178C185.142 42.4584 185.264 42.6782 185.453 42.8288C185.643 42.9797 185.884 43.0485 186.125 43.0203C186.365 42.9925 186.584 42.8697 186.734 42.6794C186.963 42.3918 187.224 42.1217 187.501 41.8363C188.472 40.8316 189.575 39.6927 189.575 37.4457C189.575 35.1988 188.472 34.0601 187.501 33.0555C186.628 32.1532 185.938 31.4408 185.938 29.9293C185.938 28.4179 186.627 27.706 187.501 26.8038C187.734 26.5631 187.975 26.3137 188.206 26.0428H188.206C188.37 25.8606 188.454 25.6197 188.438 25.3751C188.422 25.1302 188.308 24.9023 188.121 24.7432C187.935 24.5838 187.692 24.5065 187.448 24.529C187.204 24.5514 186.979 24.6714 186.824 24.862C186.629 25.0899 186.418 25.3081 186.194 25.5394C185.222 26.5437 184.12 27.6824 184.12 29.9293C184.12 32.1763 185.222 33.3149 186.194 34.3199C187.067 35.2221 187.756 35.9346 187.756 37.4457C187.756 38.9569 187.067 39.6696 186.194 40.5719C185.899 40.8762 185.595 41.1907 185.311 41.5474Z" fill="#0C0421"/>
<path d="M222.652 43.0029C218.709 42.0509 215.415 42.3773 212.858 43.9733C212.223 44.3706 211.639 44.8441 211.118 45.3832C211.023 43.5035 210.343 41.6443 209.082 39.8576C207.888 38.2035 206.402 36.7821 204.696 35.6644C204.271 35.4031 203.715 35.5329 203.45 35.9553C201.294 39.3867 200.554 42.6116 201.249 45.5402C201.408 46.2067 201.641 46.8531 201.944 47.4678C200.186 46.988 198.268 47.0298 196.234 47.6099C195.233 47.9002 194.264 48.2894 193.34 48.771H137.198C135.931 48.771 134.761 49.4468 134.127 50.5439C133.494 51.6411 133.494 52.9927 134.127 54.0898C134.761 55.187 135.931 55.8628 137.198 55.8628H139.387V56.8196C139.387 68.1059 147.387 77.8173 158.298 80.1953V87.8572C158.291 88.096 158.38 88.3278 158.545 88.5006C158.71 88.6733 158.938 88.7727 159.177 88.7761H165.315C165.834 88.777 166.265 88.3751 166.299 87.8572V80.7751H184.847V87.8572C184.836 88.0942 184.921 88.3254 185.083 88.4984C185.245 88.6718 185.47 88.7718 185.708 88.776H191.845C192.348 88.776 192.666 88.3593 192.666 87.8571V80.1932C197.149 79.2191 201.259 76.9797 204.508 73.7405C207.758 70.5014 210.01 66.3984 210.998 61.9181C212.047 62.8521 213.262 63.5807 214.581 64.0653C216.41 64.74 218.342 65.0921 220.291 65.1061C220.45 65.1061 220.546 65.1027 220.566 65.1018H220.566C221.064 65.0821 221.454 64.6642 221.439 64.1654C221.314 60.107 220.125 57.0132 217.906 54.9707C217.237 54.3567 216.482 53.8442 215.664 53.4493C217.614 52.809 219.326 51.5194 220.735 49.5985V49.5989C221.928 47.9374 222.806 46.0711 223.324 44.0927C223.437 43.606 223.136 43.1195 222.651 43.0029L222.652 43.0029ZM209.352 53.5382C209.119 53.9167 208.724 54.1655 208.283 54.2116C207.842 54.258 207.404 54.0961 207.098 53.774C206.793 53.4518 206.655 53.006 206.724 52.5675C206.794 52.1292 207.064 51.7482 207.454 51.5364C207.844 51.3249 208.31 51.307 208.716 51.4876C209.122 51.6686 209.42 52.0274 209.523 52.4592C209.612 52.8272 209.551 53.2157 209.352 53.5381L209.352 53.5382ZM204.889 59.8526C205.348 60.0569 205.885 59.8508 206.089 59.3926L207.551 56.1164V56.1167C207.567 56.0761 207.581 56.0343 207.592 55.9918C207.631 55.9985 207.671 56.0018 207.71 56.007C208.09 57.1995 208.587 59.5996 207.516 62.0192C206.593 64.1059 204.69 65.7778 201.851 66.9987V66.999C201.453 65.5649 201.271 64.0789 201.313 62.5909C201.447 59.1513 203.011 56.6859 205.961 55.253C205.935 55.2918 205.911 55.333 205.891 55.3757L204.43 58.6519C204.331 58.8723 204.324 59.1223 204.411 59.3475C204.497 59.5729 204.669 59.7545 204.89 59.8527L204.889 59.8526ZM204.499 37.7455C205.683 38.6395 206.727 39.7048 207.596 40.9064C209.583 43.7192 209.844 46.6263 208.378 49.5557C208.348 49.5535 208.317 49.5529 208.287 49.5514C208.283 49.5287 208.283 49.5063 208.278 49.4835L207.443 45.9949C207.388 45.7588 207.241 45.5545 207.035 45.4273C206.829 45.2997 206.581 45.26 206.345 45.3163C206.11 45.3727 205.906 45.5206 205.78 45.7276C205.654 45.9346 205.616 46.1831 205.674 46.4183L206.51 49.9072C206.515 49.9297 206.524 49.9503 206.531 49.9721C206.513 49.9827 206.493 49.9915 206.474 50.0024C205.45 49.275 203.624 47.6664 203.02 45.1199C202.493 42.9075 202.991 40.4303 204.5 37.7454L204.499 37.7455ZM196.732 49.3592C200.049 48.4136 202.882 49.1334 205.164 51.4971C205.159 51.5095 205.153 51.5216 205.148 51.5334L201.591 51.1943C201.091 51.1464 200.648 51.5131 200.6 52.0129C200.552 52.513 200.919 52.9567 201.419 53.0045L204.94 53.3403C204.944 53.3655 204.949 53.3906 204.954 53.4158C203.932 54.1432 201.807 55.3433 199.194 55.0736C196.932 54.8396 194.757 53.551 192.721 51.2388H192.721C193.957 50.4163 195.309 49.7829 196.733 49.3592L196.732 49.3592ZM137.199 54.0444C136.734 54.048 136.286 53.8659 135.955 53.5382C135.625 53.2109 135.438 52.7651 135.437 52.2999C135.436 51.8389 135.623 51.398 135.954 51.0776C136.287 50.7536 136.735 50.5776 137.199 50.5894H190.628C190.422 50.9152 190.444 51.3361 190.684 51.6383C191.369 52.5064 192.131 53.3115 192.959 54.0444L137.199 54.0444ZM164.482 86.9576H160.118V80.5205C161.2 80.6808 162.293 80.7656 163.387 80.775H164.482V86.9576ZM190.849 86.9576H186.666V80.775H187.637C188.712 80.7732 189.786 80.688 190.849 80.5204V86.9576ZM203.625 72.0915C201.56 74.253 199.079 75.9753 196.331 77.1549C193.584 78.3347 190.627 78.9475 187.637 78.957H163.387C162.018 78.953 160.653 78.8245 159.307 78.5724C154.225 77.6295 149.634 74.9386 146.328 70.9657C143.022 66.9927 141.21 61.9883 141.206 56.8203V55.8635H195.609C196.67 56.4096 197.822 56.7554 199.008 56.8834C199.32 56.9158 199.632 56.9319 199.946 56.9319C200.395 56.9313 200.845 56.8982 201.29 56.8325C200.192 58.3939 199.583 60.3044 199.496 62.5202L199.496 62.5205C199.437 64.5652 199.754 66.6037 200.432 68.534C200.61 69.0001 201.131 69.235 201.599 69.0601C204.881 67.836 207.227 66.0903 208.595 63.8643L208.595 63.864C207.568 66.9407 205.871 69.7508 203.625 72.0919L203.625 72.0915ZM216.675 56.3075C218.352 57.8505 219.323 60.1868 219.57 63.2621C218.07 63.179 216.591 62.8708 215.183 62.3471C212.017 61.123 210.201 58.8818 209.772 55.6817L212.388 57.8923V57.8926C212.771 58.2166 213.345 58.1684 213.669 57.785C213.993 57.4013 213.945 56.8276 213.561 56.5036L210.99 54.3303C211.015 54.2839 211.041 54.2394 211.064 54.1915C212.318 54.2181 214.74 54.5261 216.675 56.3078L216.675 56.3075ZM211.281 51.9979C211.279 51.9894 211.276 51.9812 211.273 51.9727C211.292 51.9636 211.311 51.9558 211.33 51.9455L214.443 50.1634C214.879 49.914 215.03 49.3585 214.781 48.9227C214.531 48.4868 213.976 48.3356 213.54 48.585L210.426 50.3671C210.4 50.3841 210.375 50.4023 210.35 50.4216C210.331 50.4035 210.311 50.3868 210.292 50.3695C210.649 49.1694 211.588 46.9106 213.822 45.5156C215.754 44.3094 218.265 43.9921 221.296 44.5692C220.52 46.9134 217.86 52.9515 211.281 51.998L211.281 51.9979Z" fill="#0C0421"/>
<path d="M73.2949 117.463H65.9697V113.933H84.6445V117.463H77.3193V133.776H73.2949V117.463ZM88.4785 118.796H92.2363V120.954C93.0658 120.336 93.9417 119.803 94.8643 119.354C95.7868 118.906 96.7051 118.563 97.6191 118.326L98.7236 121.766C97.2764 121.91 96.0026 122.236 94.9023 122.744C93.8105 123.243 92.9219 123.95 92.2363 124.864V133.776H88.4785V118.796ZM100.818 129.053C100.818 128.334 100.975 127.678 101.288 127.086C101.601 126.493 102.071 125.985 102.697 125.562C103.324 125.131 104.102 124.801 105.033 124.572C105.973 124.335 107.064 124.217 108.309 124.217C109.231 124.217 110.2 124.284 111.216 124.42C112.24 124.555 113.294 124.762 114.377 125.042C114.335 124.568 114.191 124.132 113.945 123.734C113.7 123.328 113.357 122.981 112.917 122.693C112.485 122.397 111.961 122.168 111.343 122.008C110.733 121.847 110.039 121.766 109.261 121.766C108.838 121.766 108.372 121.792 107.864 121.843C107.356 121.893 106.832 121.969 106.29 122.071C105.748 122.173 105.211 122.3 104.678 122.452C104.153 122.604 103.662 122.786 103.205 122.998L102.062 119.913C102.63 119.71 103.235 119.524 103.878 119.354C104.53 119.185 105.194 119.041 105.871 118.923C106.548 118.796 107.225 118.698 107.902 118.631C108.579 118.563 109.235 118.529 109.87 118.529C112.672 118.529 114.754 119.244 116.116 120.675C117.479 122.105 118.16 124.297 118.16 127.251V133.776H114.402V132.367C114.013 132.595 113.586 132.811 113.12 133.014C112.663 133.218 112.164 133.395 111.622 133.548C111.08 133.7 110.496 133.818 109.87 133.903C109.252 133.996 108.596 134.043 107.902 134.043C106.734 134.043 105.706 133.916 104.817 133.662C103.937 133.408 103.201 133.057 102.608 132.608C102.016 132.16 101.567 131.635 101.263 131.034C100.966 130.425 100.818 129.764 100.818 129.053ZM104.779 128.927C104.779 129.172 104.843 129.409 104.97 129.637C105.097 129.858 105.3 130.056 105.579 130.234C105.858 130.403 106.214 130.543 106.646 130.653C107.086 130.755 107.615 130.805 108.232 130.805C108.893 130.805 109.532 130.746 110.149 130.628C110.767 130.509 111.343 130.353 111.876 130.158C112.409 129.963 112.892 129.739 113.323 129.485C113.755 129.231 114.115 128.969 114.402 128.698V128.038C113.827 127.877 113.256 127.742 112.688 127.632C112.13 127.522 111.592 127.437 111.076 127.378C110.568 127.31 110.086 127.263 109.629 127.238C109.18 127.213 108.787 127.2 108.448 127.2C107.746 127.2 107.162 127.247 106.696 127.34C106.231 127.433 105.854 127.56 105.566 127.72C105.279 127.873 105.076 128.055 104.957 128.266C104.839 128.478 104.779 128.698 104.779 128.927ZM125.396 121.614H121.778V118.796H125.396V114.136H129.154V118.796H132.772V121.614H129.154V133.776H125.396V121.614ZM135.4 129.053C135.4 128.334 135.557 127.678 135.87 127.086C136.183 126.493 136.653 125.985 137.279 125.562C137.906 125.131 138.684 124.801 139.615 124.572C140.555 124.335 141.646 124.217 142.891 124.217C143.813 124.217 144.782 124.284 145.798 124.42C146.822 124.555 147.876 124.762 148.959 125.042C148.917 124.568 148.773 124.132 148.527 123.734C148.282 123.328 147.939 122.981 147.499 122.693C147.067 122.397 146.543 122.168 145.925 122.008C145.315 121.847 144.621 121.766 143.843 121.766C143.42 121.766 142.954 121.792 142.446 121.843C141.938 121.893 141.414 121.969 140.872 122.071C140.33 122.173 139.793 122.3 139.26 122.452C138.735 122.604 138.244 122.786 137.787 122.998L136.645 119.913C137.212 119.71 137.817 119.524 138.46 119.354C139.112 119.185 139.776 119.041 140.453 118.923C141.13 118.796 141.807 118.698 142.484 118.631C143.161 118.563 143.817 118.529 144.452 118.529C147.254 118.529 149.336 119.244 150.698 120.675C152.061 122.105 152.742 124.297 152.742 127.251V133.776H148.984V132.367C148.595 132.595 148.168 132.811 147.702 133.014C147.245 133.218 146.746 133.395 146.204 133.548C145.662 133.7 145.078 133.818 144.452 133.903C143.834 133.996 143.178 134.043 142.484 134.043C141.316 134.043 140.288 133.916 139.399 133.662C138.519 133.408 137.783 133.057 137.19 132.608C136.598 132.16 136.149 131.635 135.845 131.034C135.549 130.425 135.4 129.764 135.4 129.053ZM139.361 128.927C139.361 129.172 139.425 129.409 139.552 129.637C139.679 129.858 139.882 130.056 140.161 130.234C140.44 130.403 140.796 130.543 141.228 130.653C141.668 130.755 142.197 130.805 142.814 130.805C143.475 130.805 144.114 130.746 144.731 130.628C145.349 130.509 145.925 130.353 146.458 130.158C146.991 129.963 147.474 129.739 147.905 129.485C148.337 129.231 148.697 128.969 148.984 128.698V128.038C148.409 127.877 147.838 127.742 147.271 127.632C146.712 127.522 146.174 127.437 145.658 127.378C145.15 127.31 144.668 127.263 144.211 127.238C143.762 127.213 143.369 127.2 143.03 127.2C142.328 127.2 141.744 127.247 141.278 127.34C140.813 127.433 140.436 127.56 140.148 127.72C139.861 127.873 139.658 128.055 139.539 128.266C139.421 128.478 139.361 128.698 139.361 128.927ZM157.82 118.796H161.578V120.065C162.518 119.49 163.432 119.092 164.32 118.872C165.217 118.643 166.093 118.529 166.948 118.529C168.142 118.529 169.238 118.719 170.236 119.1C171.235 119.481 172.09 120.057 172.801 120.827C173.351 120.404 173.893 120.048 174.426 119.76C174.959 119.464 175.492 119.227 176.025 119.05C176.559 118.863 177.1 118.732 177.65 118.656C178.201 118.571 178.768 118.529 179.352 118.529C180.579 118.529 181.692 118.698 182.69 119.037C183.689 119.367 184.54 119.862 185.242 120.522C185.953 121.182 186.499 122.008 186.88 122.998C187.269 123.98 187.464 125.118 187.464 126.413V133.776H183.719V127.022C183.719 126.201 183.6 125.469 183.363 124.826C183.135 124.174 182.809 123.628 182.386 123.188C181.971 122.74 181.472 122.401 180.888 122.173C180.312 121.936 179.677 121.817 178.983 121.817C178.603 121.817 178.213 121.855 177.815 121.931C177.418 121.999 177.028 122.109 176.647 122.261C176.275 122.414 175.924 122.608 175.594 122.845C175.264 123.074 174.976 123.345 174.73 123.658V133.776H170.985V127.022C170.985 126.201 170.867 125.469 170.63 124.826C170.401 124.174 170.076 123.628 169.652 123.188C169.238 122.74 168.734 122.401 168.142 122.173C167.558 121.936 166.914 121.817 166.212 121.817C165.78 121.817 165.344 121.864 164.904 121.957C164.473 122.041 164.054 122.164 163.647 122.325C163.25 122.486 162.873 122.68 162.518 122.909C162.171 123.137 161.857 123.396 161.578 123.683V133.776H157.82V118.796ZM191.488 126.235C191.488 125.219 191.696 124.25 192.11 123.328C192.525 122.397 193.122 121.576 193.9 120.865C194.679 120.154 195.631 119.587 196.757 119.164C197.891 118.741 199.177 118.529 200.616 118.529C202.047 118.529 203.333 118.745 204.476 119.177C205.627 119.6 206.6 120.184 207.396 120.928C208.2 121.673 208.813 122.549 209.236 123.556C209.668 124.564 209.884 125.643 209.884 126.794C209.884 126.938 209.88 127.094 209.871 127.263C209.871 127.424 209.863 127.572 209.846 127.708H195.678C195.839 128.156 196.097 128.567 196.452 128.939C196.816 129.312 197.269 129.633 197.811 129.904C198.352 130.175 198.979 130.386 199.689 130.539C200.4 130.683 201.188 130.755 202.051 130.755C202.914 130.755 203.773 130.666 204.628 130.488C205.483 130.302 206.299 130.069 207.078 129.79L208.348 132.659C207.857 132.887 207.357 133.091 206.85 133.268C206.35 133.438 205.826 133.581 205.275 133.7C204.734 133.81 204.162 133.895 203.562 133.954C202.969 134.013 202.343 134.043 201.683 134.043C199.998 134.043 198.521 133.84 197.252 133.433C195.982 133.027 194.92 132.473 194.065 131.77C193.211 131.068 192.567 130.243 192.136 129.295C191.704 128.347 191.488 127.327 191.488 126.235ZM205.897 124.775C205.762 124.36 205.55 123.975 205.263 123.62C204.983 123.256 204.632 122.943 204.209 122.68C203.786 122.41 203.295 122.198 202.736 122.046C202.178 121.893 201.564 121.817 200.896 121.817C200.185 121.817 199.537 121.898 198.953 122.058C198.369 122.219 197.857 122.435 197.417 122.706C196.977 122.977 196.609 123.29 196.312 123.645C196.025 124.001 195.813 124.377 195.678 124.775H205.897ZM213.934 118.796H217.691V120.065C218.69 119.498 219.642 119.1 220.548 118.872C221.462 118.643 222.355 118.529 223.227 118.529C224.369 118.529 225.427 118.698 226.4 119.037C227.374 119.367 228.216 119.862 228.927 120.522C229.638 121.182 230.192 122.008 230.59 122.998C230.996 123.98 231.199 125.118 231.199 126.413V133.776H227.454V127.022C227.454 126.201 227.336 125.469 227.099 124.826C226.87 124.174 226.536 123.628 226.096 123.188C225.664 122.74 225.135 122.401 224.509 122.173C223.891 121.936 223.197 121.817 222.427 121.817C222.021 121.817 221.602 121.859 221.17 121.944C220.747 122.029 220.328 122.151 219.913 122.312C219.507 122.465 219.113 122.659 218.732 122.896C218.352 123.125 218.005 123.387 217.691 123.683V133.776H213.934V118.796ZM238.08 121.614H234.462V118.796H238.08V114.136H241.838V118.796H245.456V121.614H241.838V133.776H238.08V121.614ZM247.894 126.286C247.894 125.211 248.109 124.204 248.541 123.264C248.981 122.325 249.603 121.504 250.407 120.802C251.22 120.099 252.197 119.545 253.34 119.138C254.491 118.732 255.782 118.529 257.212 118.529C258.642 118.529 259.929 118.732 261.071 119.138C262.222 119.545 263.2 120.099 264.004 120.802C264.816 121.504 265.438 122.325 265.87 123.264C266.31 124.204 266.53 125.211 266.53 126.286C266.53 127.361 266.31 128.368 265.87 129.307C265.438 130.247 264.816 131.068 264.004 131.77C263.2 132.473 262.222 133.027 261.071 133.433C259.929 133.84 258.642 134.043 257.212 134.043C255.782 134.043 254.491 133.84 253.34 133.433C252.197 133.027 251.22 132.473 250.407 131.77C249.603 131.068 248.981 130.247 248.541 129.307C248.109 128.368 247.894 127.361 247.894 126.286ZM251.842 126.286C251.842 126.887 251.96 127.458 252.197 128C252.443 128.533 252.794 129.007 253.251 129.422C253.716 129.828 254.279 130.154 254.939 130.399C255.608 130.636 256.366 130.755 257.212 130.755C258.058 130.755 258.812 130.636 259.472 130.399C260.14 130.154 260.703 129.828 261.16 129.422C261.626 129.007 261.977 128.533 262.214 128C262.459 127.458 262.582 126.887 262.582 126.286C262.582 125.685 262.459 125.114 262.214 124.572C261.977 124.03 261.626 123.556 261.16 123.15C260.703 122.735 260.14 122.41 259.472 122.173C258.812 121.927 258.058 121.804 257.212 121.804C256.366 121.804 255.608 121.927 254.939 122.173C254.279 122.41 253.716 122.735 253.251 123.15C252.794 123.556 252.443 124.03 252.197 124.572C251.96 125.114 251.842 125.685 251.842 126.286ZM270.923 129.18C271.938 129.79 273.056 130.238 274.274 130.526C275.493 130.814 276.742 130.958 278.02 130.958C278.883 130.958 279.602 130.899 280.178 130.78C280.753 130.662 281.215 130.509 281.562 130.323C281.909 130.137 282.154 129.925 282.298 129.688C282.442 129.451 282.514 129.21 282.514 128.965C282.514 128.609 282.357 128.304 282.044 128.051C281.739 127.797 281.231 127.67 280.521 127.67C280.19 127.67 279.835 127.691 279.454 127.733C279.073 127.775 278.671 127.822 278.248 127.873C277.833 127.915 277.397 127.957 276.94 128C276.492 128.042 276.035 128.063 275.569 128.063C274.554 128.063 273.686 127.953 272.967 127.733C272.256 127.513 271.676 127.213 271.228 126.832C270.779 126.451 270.453 126.002 270.25 125.486C270.047 124.961 269.945 124.399 269.945 123.798C269.945 123.036 270.123 122.333 270.479 121.69C270.834 121.047 271.342 120.493 272.002 120.027C272.662 119.553 273.458 119.185 274.389 118.923C275.328 118.66 276.373 118.529 277.524 118.529C278.125 118.529 278.752 118.567 279.403 118.643C280.063 118.711 280.711 118.804 281.346 118.923C281.98 119.041 282.59 119.181 283.174 119.342C283.758 119.494 284.274 119.659 284.723 119.837L283.542 122.757C282.586 122.401 281.629 122.122 280.673 121.919C279.725 121.707 278.747 121.601 277.74 121.601C277.038 121.601 276.441 121.656 275.95 121.766C275.468 121.868 275.074 122.008 274.77 122.185C274.465 122.355 274.241 122.553 274.097 122.782C273.961 123.002 273.894 123.235 273.894 123.48C273.894 123.658 273.927 123.819 273.995 123.963C274.071 124.107 274.19 124.233 274.351 124.344C274.52 124.445 274.736 124.525 274.998 124.585C275.269 124.635 275.599 124.661 275.988 124.661C276.344 124.661 276.72 124.64 277.118 124.597C277.516 124.555 277.931 124.513 278.362 124.47C278.794 124.42 279.238 124.373 279.695 124.331C280.161 124.288 280.635 124.267 281.117 124.267C282.014 124.267 282.797 124.373 283.466 124.585C284.143 124.796 284.701 125.093 285.142 125.473C285.582 125.854 285.912 126.303 286.132 126.819C286.352 127.335 286.462 127.898 286.462 128.508C286.462 129.295 286.28 130.027 285.916 130.704C285.552 131.381 285.01 131.969 284.291 132.469C283.572 132.959 282.674 133.344 281.6 133.624C280.533 133.903 279.298 134.043 277.893 134.043C277.029 134.043 276.196 133.988 275.392 133.878C274.588 133.776 273.822 133.636 273.094 133.459C272.366 133.273 271.68 133.057 271.037 132.811C270.402 132.566 269.823 132.303 269.298 132.024L270.923 129.18ZM95.3213 162.734C95.3213 161.321 95.5879 160.005 96.1211 158.786C96.6543 157.559 97.4245 156.497 98.4316 155.599C99.4473 154.694 100.683 153.983 102.139 153.467C103.603 152.95 105.257 152.692 107.103 152.692C108.719 152.692 110.2 152.857 111.546 153.187C112.9 153.509 114.157 154.004 115.316 154.673L113.463 157.719C113.116 157.491 112.714 157.288 112.257 157.11C111.808 156.932 111.326 156.784 110.81 156.666C110.302 156.539 109.773 156.441 109.223 156.374C108.681 156.306 108.144 156.272 107.61 156.272C106.324 156.272 105.177 156.433 104.17 156.755C103.163 157.068 102.312 157.512 101.618 158.088C100.933 158.655 100.408 159.336 100.044 160.132C99.6885 160.919 99.5107 161.786 99.5107 162.734C99.5107 163.716 99.6969 164.617 100.069 165.438C100.442 166.259 100.979 166.97 101.682 167.571C102.393 168.163 103.256 168.629 104.271 168.968C105.296 169.298 106.451 169.463 107.737 169.463C108.321 169.463 108.901 169.42 109.477 169.336C110.052 169.251 110.606 169.137 111.14 168.993C111.681 168.841 112.202 168.663 112.701 168.46C113.201 168.248 113.666 168.02 114.098 167.774L115.951 170.821C114.868 171.515 113.615 172.061 112.193 172.459C110.771 172.848 109.261 173.043 107.661 173.043C105.621 173.043 103.831 172.78 102.291 172.256C100.751 171.722 99.4642 170.995 98.4316 170.072C97.3991 169.141 96.6204 168.049 96.0957 166.797C95.5794 165.536 95.3213 164.181 95.3213 162.734ZM119.023 165.286C119.023 164.211 119.239 163.204 119.671 162.264C120.111 161.325 120.733 160.504 121.537 159.802C122.35 159.099 123.327 158.545 124.47 158.138C125.621 157.732 126.911 157.529 128.342 157.529C129.772 157.529 131.059 157.732 132.201 158.138C133.352 158.545 134.33 159.099 135.134 159.802C135.946 160.504 136.568 161.325 137 162.264C137.44 163.204 137.66 164.211 137.66 165.286C137.66 166.361 137.44 167.368 137 168.307C136.568 169.247 135.946 170.068 135.134 170.77C134.33 171.473 133.352 172.027 132.201 172.433C131.059 172.84 129.772 173.043 128.342 173.043C126.911 173.043 125.621 172.84 124.47 172.433C123.327 172.027 122.35 171.473 121.537 170.77C120.733 170.068 120.111 169.247 119.671 168.307C119.239 167.368 119.023 166.361 119.023 165.286ZM122.972 165.286C122.972 165.887 123.09 166.458 123.327 167C123.573 167.533 123.924 168.007 124.381 168.422C124.846 168.828 125.409 169.154 126.069 169.399C126.738 169.636 127.495 169.755 128.342 169.755C129.188 169.755 129.941 169.636 130.602 169.399C131.27 169.154 131.833 168.828 132.29 168.422C132.756 168.007 133.107 167.533 133.344 167C133.589 166.458 133.712 165.887 133.712 165.286C133.712 164.685 133.589 164.114 133.344 163.572C133.107 163.03 132.756 162.556 132.29 162.15C131.833 161.735 131.27 161.41 130.602 161.173C129.941 160.927 129.188 160.804 128.342 160.804C127.495 160.804 126.738 160.927 126.069 161.173C125.409 161.41 124.846 161.735 124.381 162.15C123.924 162.556 123.573 163.03 123.327 163.572C123.09 164.114 122.972 164.685 122.972 165.286ZM141.456 157.796H145.214V159.954C146.043 159.336 146.919 158.803 147.842 158.354C148.764 157.906 149.683 157.563 150.597 157.326L151.701 160.766C150.254 160.91 148.98 161.236 147.88 161.744C146.788 162.243 145.899 162.95 145.214 163.864V172.776H141.456V157.796ZM158.163 178.895H154.405V157.796H158.163V159.205C158.493 158.976 158.882 158.76 159.331 158.557C159.78 158.354 160.262 158.177 160.778 158.024C161.295 157.872 161.828 157.753 162.378 157.669C162.928 157.576 163.478 157.529 164.028 157.529C165.298 157.529 166.462 157.715 167.52 158.088C168.586 158.46 169.5 158.985 170.262 159.662C171.023 160.339 171.616 161.151 172.039 162.099C172.471 163.039 172.687 164.08 172.687 165.222C172.687 166.416 172.462 167.495 172.014 168.46C171.565 169.416 170.943 170.237 170.147 170.923C169.36 171.6 168.421 172.124 167.329 172.497C166.246 172.861 165.069 173.043 163.8 173.043C163.258 173.043 162.721 173.009 162.188 172.941C161.663 172.873 161.155 172.78 160.664 172.662C160.182 172.543 159.725 172.404 159.293 172.243C158.87 172.074 158.493 171.892 158.163 171.697V178.895ZM158.163 168.066C158.544 168.371 158.946 168.629 159.369 168.841C159.792 169.052 160.224 169.226 160.664 169.361C161.104 169.497 161.549 169.598 161.997 169.666C162.446 169.725 162.882 169.755 163.305 169.755C164.168 169.755 164.934 169.64 165.603 169.412C166.28 169.175 166.847 168.853 167.304 168.447C167.769 168.041 168.125 167.563 168.37 167.012C168.616 166.462 168.738 165.866 168.738 165.222C168.738 164.622 168.616 164.054 168.37 163.521C168.133 162.988 167.786 162.523 167.329 162.125C166.881 161.719 166.335 161.401 165.691 161.173C165.057 160.936 164.341 160.817 163.546 160.817C163.038 160.817 162.53 160.868 162.022 160.969C161.515 161.063 161.024 161.198 160.55 161.376C160.084 161.553 159.644 161.769 159.229 162.023C158.823 162.277 158.468 162.561 158.163 162.874V168.066ZM175.34 165.286C175.34 164.211 175.556 163.204 175.987 162.264C176.427 161.325 177.049 160.504 177.854 159.802C178.666 159.099 179.644 158.545 180.786 158.138C181.937 157.732 183.228 157.529 184.658 157.529C186.089 157.529 187.375 157.732 188.518 158.138C189.669 158.545 190.646 159.099 191.45 159.802C192.263 160.504 192.885 161.325 193.316 162.264C193.757 163.204 193.977 164.211 193.977 165.286C193.977 166.361 193.757 167.368 193.316 168.307C192.885 169.247 192.263 170.068 191.45 170.77C190.646 171.473 189.669 172.027 188.518 172.433C187.375 172.84 186.089 173.043 184.658 173.043C183.228 173.043 181.937 172.84 180.786 172.433C179.644 172.027 178.666 171.473 177.854 170.77C177.049 170.068 176.427 169.247 175.987 168.307C175.556 167.368 175.34 166.361 175.34 165.286ZM179.288 165.286C179.288 165.887 179.407 166.458 179.644 167C179.889 167.533 180.24 168.007 180.697 168.422C181.163 168.828 181.726 169.154 182.386 169.399C183.054 169.636 183.812 169.755 184.658 169.755C185.505 169.755 186.258 169.636 186.918 169.399C187.587 169.154 188.149 168.828 188.606 168.422C189.072 168.007 189.423 167.533 189.66 167C189.906 166.458 190.028 165.887 190.028 165.286C190.028 164.685 189.906 164.114 189.66 163.572C189.423 163.03 189.072 162.556 188.606 162.15C188.149 161.735 187.587 161.41 186.918 161.173C186.258 160.927 185.505 160.804 184.658 160.804C183.812 160.804 183.054 160.927 182.386 161.173C181.726 161.41 181.163 161.735 180.697 162.15C180.24 162.556 179.889 163.03 179.644 163.572C179.407 164.114 179.288 164.685 179.288 165.286ZM197.772 157.796H201.53V159.954C202.36 159.336 203.236 158.803 204.158 158.354C205.081 157.906 205.999 157.563 206.913 157.326L208.018 160.766C206.57 160.91 205.297 161.236 204.196 161.744C203.104 162.243 202.216 162.95 201.53 163.864V172.776H197.772V157.796ZM210.112 168.053C210.112 167.334 210.269 166.678 210.582 166.086C210.895 165.493 211.365 164.985 211.991 164.562C212.618 164.131 213.396 163.801 214.327 163.572C215.267 163.335 216.358 163.217 217.603 163.217C218.525 163.217 219.494 163.284 220.51 163.42C221.534 163.555 222.588 163.762 223.671 164.042C223.629 163.568 223.485 163.132 223.239 162.734C222.994 162.328 222.651 161.981 222.211 161.693C221.779 161.397 221.255 161.168 220.637 161.008C220.027 160.847 219.333 160.766 218.555 160.766C218.132 160.766 217.666 160.792 217.158 160.843C216.65 160.893 216.126 160.969 215.584 161.071C215.042 161.173 214.505 161.3 213.972 161.452C213.447 161.604 212.956 161.786 212.499 161.998L211.356 158.913C211.924 158.71 212.529 158.524 213.172 158.354C213.824 158.185 214.488 158.041 215.165 157.923C215.842 157.796 216.519 157.698 217.196 157.631C217.873 157.563 218.529 157.529 219.164 157.529C221.965 157.529 224.048 158.244 225.41 159.675C226.773 161.105 227.454 163.297 227.454 166.251V172.776H223.696V171.367C223.307 171.595 222.88 171.811 222.414 172.014C221.957 172.218 221.458 172.395 220.916 172.548C220.374 172.7 219.79 172.818 219.164 172.903C218.546 172.996 217.89 173.043 217.196 173.043C216.028 173.043 215 172.916 214.111 172.662C213.231 172.408 212.495 172.057 211.902 171.608C211.31 171.16 210.861 170.635 210.557 170.034C210.26 169.425 210.112 168.764 210.112 168.053ZM214.073 167.927C214.073 168.172 214.137 168.409 214.264 168.637C214.391 168.858 214.594 169.056 214.873 169.234C215.152 169.403 215.508 169.543 215.939 169.653C216.38 169.755 216.909 169.805 217.526 169.805C218.187 169.805 218.826 169.746 219.443 169.628C220.061 169.509 220.637 169.353 221.17 169.158C221.703 168.963 222.186 168.739 222.617 168.485C223.049 168.231 223.409 167.969 223.696 167.698V167.038C223.121 166.877 222.549 166.742 221.982 166.632C221.424 166.522 220.886 166.437 220.37 166.378C219.862 166.31 219.38 166.263 218.923 166.238C218.474 166.213 218.081 166.2 217.742 166.2C217.04 166.2 216.456 166.247 215.99 166.34C215.525 166.433 215.148 166.56 214.86 166.72C214.573 166.873 214.369 167.055 214.251 167.266C214.132 167.478 214.073 167.698 214.073 167.927ZM234.411 155.752C234.039 155.752 233.7 155.701 233.396 155.599C233.099 155.489 232.845 155.345 232.634 155.168C232.422 154.982 232.257 154.77 232.139 154.533C232.029 154.288 231.974 154.029 231.974 153.759C231.974 153.479 232.029 153.221 232.139 152.984C232.257 152.739 232.422 152.527 232.634 152.349C232.845 152.172 233.099 152.032 233.396 151.93C233.7 151.82 234.039 151.765 234.411 151.765C234.792 151.765 235.131 151.82 235.427 151.93C235.731 152.032 235.99 152.172 236.201 152.349C236.413 152.527 236.574 152.739 236.684 152.984C236.802 153.221 236.861 153.479 236.861 153.759C236.861 154.029 236.802 154.288 236.684 154.533C236.574 154.77 236.413 154.982 236.201 155.168C235.99 155.345 235.731 155.489 235.427 155.599C235.131 155.701 234.792 155.752 234.411 155.752ZM232.532 157.796H236.29V172.776H232.532V157.796ZM241.711 168.18C242.727 168.79 243.844 169.238 245.062 169.526C246.281 169.814 247.53 169.958 248.808 169.958C249.671 169.958 250.39 169.899 250.966 169.78C251.541 169.662 252.003 169.509 252.35 169.323C252.697 169.137 252.942 168.925 253.086 168.688C253.23 168.451 253.302 168.21 253.302 167.965C253.302 167.609 253.145 167.304 252.832 167.051C252.527 166.797 252.02 166.67 251.309 166.67C250.979 166.67 250.623 166.691 250.242 166.733C249.861 166.775 249.459 166.822 249.036 166.873C248.621 166.915 248.186 166.957 247.729 167C247.28 167.042 246.823 167.063 246.357 167.063C245.342 167.063 244.474 166.953 243.755 166.733C243.044 166.513 242.464 166.213 242.016 165.832C241.567 165.451 241.241 165.002 241.038 164.486C240.835 163.961 240.733 163.399 240.733 162.798C240.733 162.036 240.911 161.333 241.267 160.69C241.622 160.047 242.13 159.493 242.79 159.027C243.45 158.553 244.246 158.185 245.177 157.923C246.116 157.66 247.161 157.529 248.312 157.529C248.913 157.529 249.54 157.567 250.191 157.643C250.852 157.711 251.499 157.804 252.134 157.923C252.769 158.041 253.378 158.181 253.962 158.342C254.546 158.494 255.062 158.659 255.511 158.837L254.33 161.757C253.374 161.401 252.417 161.122 251.461 160.919C250.513 160.707 249.535 160.601 248.528 160.601C247.826 160.601 247.229 160.656 246.738 160.766C246.256 160.868 245.862 161.008 245.558 161.185C245.253 161.355 245.029 161.553 244.885 161.782C244.749 162.002 244.682 162.235 244.682 162.48C244.682 162.658 244.715 162.819 244.783 162.963C244.859 163.107 244.978 163.233 245.139 163.344C245.308 163.445 245.524 163.525 245.786 163.585C246.057 163.635 246.387 163.661 246.776 163.661C247.132 163.661 247.508 163.64 247.906 163.597C248.304 163.555 248.719 163.513 249.15 163.47C249.582 163.42 250.026 163.373 250.483 163.331C250.949 163.288 251.423 163.267 251.905 163.267C252.802 163.267 253.585 163.373 254.254 163.585C254.931 163.796 255.49 164.093 255.93 164.473C256.37 164.854 256.7 165.303 256.92 165.819C257.14 166.335 257.25 166.898 257.25 167.508C257.25 168.295 257.068 169.027 256.704 169.704C256.34 170.381 255.799 170.969 255.079 171.469C254.36 171.959 253.463 172.344 252.388 172.624C251.321 172.903 250.086 173.043 248.681 173.043C247.817 173.043 246.984 172.988 246.18 172.878C245.376 172.776 244.61 172.636 243.882 172.459C243.154 172.273 242.468 172.057 241.825 171.811C241.19 171.566 240.611 171.303 240.086 171.024L241.711 168.18Z" fill="#0C0421"/>
<path d="M175.608 199.155C175.663 198.65 176.337 198.65 176.392 199.155L176.854 203.398C177.451 208.876 181.418 213.196 186.449 213.846L190.346 214.349C190.81 214.409 190.81 215.143 190.346 215.203L186.449 215.707C181.418 216.357 177.451 220.676 176.854 226.154L176.392 230.397C176.337 230.903 175.663 230.903 175.608 230.397L175.146 226.154C174.549 220.676 170.582 216.357 165.551 215.707L161.654 215.203C161.19 215.143 161.19 214.409 161.654 214.349L165.551 213.846C170.582 213.196 174.549 208.876 175.146 203.398L175.608 199.155Z" fill="#0C0421"/>
</svg>
