<svg width="352" height="188" viewBox="0 0 352 188" fill="none" xmlns="http://www.w3.org/2000/svg">
<circle cx="166.433" cy="32.7761" r="32" fill="#CAD4FA"/>
<path d="M216.915 64.1467H214.318C215.172 63.3032 215.652 62.1515 215.649 60.9504C215.649 59.8087 215.216 58.7097 214.438 57.8742C213.659 57.0391 212.593 56.5297 211.454 56.449L190.772 54.6511L194.514 50.0032L207.193 49.7102C208.715 49.6911 210.112 48.8612 210.857 47.5334C211.602 46.2052 211.581 44.5807 210.803 43.2717C210.026 41.9626 208.609 41.1678 207.086 41.1869H205.634L194.261 23.7005C193.243 22.1232 191.491 21.1743 189.613 21.1834H177.627C176.158 21.1834 174.749 21.7672 173.71 22.806C172.671 23.845 172.087 25.2542 172.087 26.7236V51.0286H162.472C160.545 51.0192 158.695 51.7772 157.328 53.1353C155.962 54.4932 155.193 56.3393 155.191 58.2657C155.189 60.192 155.954 62.0399 157.318 63.4008C157.623 63.704 157.957 63.9762 158.316 64.2132H154.534V62.988C154.531 62.0122 154.198 61.0663 153.589 60.3045C152.979 59.5426 152.129 59.0096 151.178 58.7929C152.965 57.6357 154.163 55.7601 154.462 53.6517C154.76 51.5433 154.129 49.4092 152.733 47.8016C151.337 46.1938 149.312 45.2707 147.183 45.2707C145.053 45.2707 143.029 46.1938 141.632 47.8016C140.236 49.4092 139.605 51.5434 139.904 53.6517C140.202 55.7601 141.4 57.6357 143.187 58.7929C142.236 59.0096 141.386 59.5426 140.777 60.3045C140.167 61.0663 139.834 62.0122 139.831 62.988V64.2132H139.085C138.725 64.2132 138.433 64.5054 138.433 64.8658V72.0574C138.433 72.4178 138.725 72.7099 139.085 72.7099H142.175V84.1234C142.175 84.2988 142.246 84.4669 142.371 84.5895C142.496 84.7124 142.666 84.7796 142.841 84.776H147.449C147.809 84.776 148.102 84.4838 148.102 84.1234V72.6439H207.899V84.0574C207.899 84.4178 208.191 84.7099 208.551 84.7099H213.159C213.334 84.7135 213.504 84.6464 213.629 84.5235C213.754 84.4008 213.825 84.2327 213.825 84.0574V72.6439H216.915C217.275 72.6439 217.567 72.3517 217.567 71.9913V64.7997C217.567 64.4393 217.275 64.1472 216.915 64.1472L216.915 64.1467ZM177.64 22.4888H189.626C191.063 22.4854 192.403 23.2129 193.182 24.4199L204.089 41.1867H198.363L191.504 32.1172C191.334 31.891 191.039 31.7998 190.772 31.8908C190.502 31.9729 190.318 32.2218 190.319 32.5034V38.5364L184.059 36.1791L181.01 28.5081C180.877 28.1699 180.495 28.0028 180.157 28.1352C179.819 28.2675 179.652 28.6493 179.784 28.9875L182.941 36.9781C183.002 37.1524 183.139 37.2894 183.314 37.351L190.905 40.2143C191.765 40.59 192.365 41.3907 192.482 42.3221C192.6 43.2538 192.218 44.1783 191.478 44.7557C190.74 45.2582 189.801 45.3583 188.974 45.0221L186.923 44.1564H186.83L179.612 41.1333C178.611 40.7232 177.809 39.9399 177.375 38.9492L174.005 31.3314C173.609 30.443 173.404 29.4808 173.406 28.5081V26.7235C173.406 25.6004 173.852 24.523 174.646 23.7289C175.44 22.9346 176.518 22.4884 177.641 22.4884L177.64 22.4888ZM193.622 41.1336C193.262 40.1869 192.537 39.4242 191.611 39.0161V34.4614L196.698 41.1869L193.622 41.1336ZM173.392 33.143L176.176 39.4289C176.744 40.7274 177.794 41.7542 179.106 42.2922L185.511 44.9558L179.811 51.0153H173.406L173.392 33.143ZM156.519 58.2201C156.525 56.6622 157.153 55.1711 158.263 54.0783C159.372 52.9441 160.899 52.3176 162.485 52.347L180.092 52.4269C180.272 52.4311 180.447 52.3586 180.571 52.2271L186.804 45.5683L188.468 46.2608C188.948 46.4655 189.465 46.5696 189.987 46.5671C190.791 46.5638 191.575 46.3177 192.237 45.8613C193.362 45.1216 194.023 43.8511 193.982 42.5052H207.153C207.906 42.5005 208.631 42.7868 209.178 43.3042C209.748 43.8403 210.082 44.5819 210.104 45.3646C210.127 46.1471 209.837 46.9064 209.298 47.4747C208.759 48.0429 208.016 48.3728 207.233 48.3916L194.169 48.7512C193.977 48.7548 193.797 48.8425 193.676 48.9909L188.988 54.8374C188.839 55.0263 188.803 55.2807 188.895 55.5033C188.99 55.7258 189.2 55.8789 189.441 55.9028L211.361 57.8072C212.174 57.8549 212.937 58.2137 213.492 58.8085C214.048 59.4037 214.353 60.1897 214.345 61.0035C214.341 61.8525 214.001 62.6654 213.4 63.2644C212.798 63.8634 211.984 64.1997 211.135 64.1997H185.831C186.574 63.4162 186.987 62.3771 186.985 61.2979C186.983 60.2183 186.567 59.1806 185.821 58.3996C185.076 57.6185 184.059 57.1538 182.981 57.1014L172.767 56.7418L171.741 56.6619L165.349 55.8762C165.176 55.8498 165 55.8965 164.864 56.0052C164.727 56.114 164.642 56.2749 164.63 56.4489C164.582 56.8054 164.832 57.1331 165.189 57.1813L171.581 57.967C171.968 57.967 172.341 58.0336 172.727 58.0469L182.915 58.3799C183.904 58.4609 184.782 59.0413 185.245 59.9183C185.708 60.7957 185.691 61.8486 185.2 62.7104C184.709 63.5721 183.812 64.1237 182.822 64.1731H162.445C160.872 64.1767 159.363 63.5533 158.251 62.4412C157.139 61.3289 156.515 59.8196 156.519 58.2467L156.519 58.2201ZM141.163 52.5734C141.163 50.9725 141.799 49.4373 142.932 48.3059C144.064 47.1744 145.6 46.5393 147.201 46.5405C148.802 46.5416 150.336 47.1789 151.467 48.3123C152.598 49.4454 153.231 50.9813 153.229 52.5822C153.227 54.1831 152.588 55.7172 151.454 56.8473C150.32 57.977 148.784 58.6099 147.183 58.6063C145.585 58.6027 144.054 57.9657 142.926 56.8345C141.797 55.7036 141.163 54.1713 141.163 52.5734L141.163 52.5734ZM141.163 62.9214C141.163 62.1254 141.478 61.3619 142.04 60.7978C142.602 60.2338 143.364 59.9152 144.16 59.9116H150.219C151.015 59.9152 151.778 60.2337 152.339 60.7978C152.901 61.3619 153.216 62.1254 153.216 62.9214V64.1467H141.23L141.163 62.9214ZM146.797 83.3775H143.494V72.6437H146.797V83.3775ZM212.506 83.3775H209.203V72.6437H212.506V83.3775ZM216.262 71.3915H139.736V65.4518H216.262V71.3915Z" fill="#0C0421"/>
<path d="M182.513 19.4523C184.459 19.4523 186.326 18.6793 187.702 17.3032C189.078 15.927 189.851 14.0603 189.851 12.1142C189.851 10.1681 189.078 8.30145 187.702 6.92529C186.326 5.54912 184.459 4.77612 182.513 4.77612C180.567 4.77612 178.7 5.54912 177.324 6.92529C175.948 8.30145 175.175 10.1681 175.175 12.1142C175.175 14.0603 175.948 15.927 177.324 17.3032C178.7 18.6793 180.567 19.4523 182.513 19.4523ZM182.513 6.1346C184.113 6.1346 185.648 6.77025 186.779 7.90171C187.91 9.0329 188.546 10.5675 188.546 12.1676C188.546 13.7677 187.91 15.3022 186.779 16.4334C185.648 17.5649 184.113 18.2005 182.513 18.2005C180.913 18.2005 179.378 17.5649 178.247 16.4334C177.116 15.3022 176.48 13.7677 176.48 12.1676C176.484 10.5686 177.12 9.03624 178.251 7.90561C179.382 6.77499 180.914 6.13823 182.513 6.1346Z" fill="#0C0421"/>
<path d="M81.2295 109.933H85.2539L92.4648 117.17L99.6758 109.933H103.7V129.776H99.6758V115.507L92.4648 122.451L85.2539 115.507V129.776H81.2295V109.933ZM108.169 125.053C108.169 124.334 108.326 123.678 108.639 123.086C108.952 122.493 109.422 121.985 110.048 121.562C110.674 121.131 111.453 120.801 112.384 120.572C113.323 120.335 114.415 120.217 115.659 120.217C116.582 120.217 117.551 120.284 118.566 120.42C119.59 120.555 120.644 120.762 121.728 121.042C121.685 120.568 121.541 120.132 121.296 119.734C121.05 119.328 120.708 118.981 120.268 118.693C119.836 118.397 119.311 118.168 118.693 118.008C118.084 117.847 117.39 117.766 116.611 117.766C116.188 117.766 115.723 117.792 115.215 117.843C114.707 117.893 114.182 117.969 113.641 118.071C113.099 118.173 112.562 118.3 112.028 118.452C111.504 118.604 111.013 118.786 110.556 118.998L109.413 115.913C109.98 115.71 110.585 115.524 111.229 115.354C111.88 115.185 112.545 115.041 113.222 114.923C113.899 114.796 114.576 114.698 115.253 114.631C115.93 114.563 116.586 114.529 117.221 114.529C120.022 114.529 122.104 115.244 123.467 116.675C124.829 118.105 125.511 120.297 125.511 123.251V129.776H121.753V128.367C121.364 128.595 120.936 128.811 120.471 129.014C120.014 129.218 119.514 129.395 118.973 129.548C118.431 129.7 117.847 129.818 117.221 129.903C116.603 129.996 115.947 130.043 115.253 130.043C114.085 130.043 113.057 129.916 112.168 129.662C111.288 129.408 110.551 129.057 109.959 128.608C109.367 128.16 108.918 127.635 108.613 127.034C108.317 126.425 108.169 125.764 108.169 125.053ZM112.13 124.927C112.13 125.172 112.193 125.409 112.32 125.637C112.447 125.858 112.65 126.056 112.93 126.234C113.209 126.403 113.564 126.543 113.996 126.653C114.436 126.755 114.965 126.805 115.583 126.805C116.243 126.805 116.882 126.746 117.5 126.628C118.118 126.509 118.693 126.353 119.227 126.158C119.76 125.963 120.242 125.739 120.674 125.485C121.105 125.231 121.465 124.969 121.753 124.698V124.038C121.177 123.877 120.606 123.742 120.039 123.632C119.48 123.522 118.943 123.437 118.427 123.378C117.919 123.31 117.437 123.263 116.979 123.238C116.531 123.213 116.137 123.2 115.799 123.2C115.096 123.2 114.512 123.247 114.047 123.34C113.581 123.433 113.205 123.56 112.917 123.72C112.629 123.873 112.426 124.055 112.308 124.266C112.189 124.478 112.13 124.698 112.13 124.927ZM131.084 125.18C132.1 125.79 133.217 126.238 134.436 126.526C135.654 126.814 136.903 126.958 138.181 126.958C139.044 126.958 139.763 126.899 140.339 126.78C140.914 126.662 141.376 126.509 141.723 126.323C142.07 126.137 142.315 125.925 142.459 125.688C142.603 125.451 142.675 125.21 142.675 124.965C142.675 124.609 142.518 124.304 142.205 124.051C141.9 123.797 141.393 123.67 140.682 123.67C140.352 123.67 139.996 123.691 139.615 123.733C139.234 123.775 138.832 123.822 138.409 123.873C137.994 123.915 137.559 123.957 137.102 124C136.653 124.042 136.196 124.063 135.73 124.063C134.715 124.063 133.847 123.953 133.128 123.733C132.417 123.513 131.837 123.213 131.389 122.832C130.94 122.451 130.614 122.002 130.411 121.486C130.208 120.961 130.106 120.399 130.106 119.798C130.106 119.036 130.284 118.333 130.64 117.69C130.995 117.047 131.503 116.493 132.163 116.027C132.823 115.553 133.619 115.185 134.55 114.923C135.489 114.66 136.535 114.529 137.686 114.529C138.286 114.529 138.913 114.567 139.564 114.643C140.225 114.711 140.872 114.804 141.507 114.923C142.142 115.041 142.751 115.181 143.335 115.342C143.919 115.494 144.435 115.659 144.884 115.837L143.703 118.757C142.747 118.401 141.79 118.122 140.834 117.919C139.886 117.707 138.909 117.601 137.901 117.601C137.199 117.601 136.602 117.656 136.111 117.766C135.629 117.868 135.235 118.008 134.931 118.185C134.626 118.355 134.402 118.553 134.258 118.782C134.122 119.002 134.055 119.235 134.055 119.48C134.055 119.658 134.089 119.819 134.156 119.963C134.232 120.107 134.351 120.233 134.512 120.344C134.681 120.445 134.897 120.525 135.159 120.585C135.43 120.635 135.76 120.661 136.149 120.661C136.505 120.661 136.882 120.64 137.279 120.597C137.677 120.555 138.092 120.513 138.523 120.47C138.955 120.42 139.399 120.373 139.856 120.331C140.322 120.288 140.796 120.267 141.278 120.267C142.175 120.267 142.958 120.373 143.627 120.585C144.304 120.796 144.863 121.093 145.303 121.473C145.743 121.854 146.073 122.303 146.293 122.819C146.513 123.335 146.623 123.898 146.623 124.508C146.623 125.295 146.441 126.027 146.077 126.704C145.713 127.381 145.172 127.969 144.452 128.469C143.733 128.959 142.836 129.344 141.761 129.624C140.694 129.903 139.459 130.043 138.054 130.043C137.19 130.043 136.357 129.988 135.553 129.878C134.749 129.776 133.983 129.636 133.255 129.459C132.527 129.273 131.841 129.057 131.198 128.811C130.563 128.566 129.984 128.303 129.459 128.024L131.084 125.18ZM150.609 125.18C151.625 125.79 152.742 126.238 153.961 126.526C155.18 126.814 156.428 126.958 157.706 126.958C158.569 126.958 159.289 126.899 159.864 126.78C160.44 126.662 160.901 126.509 161.248 126.323C161.595 126.137 161.84 125.925 161.984 125.688C162.128 125.451 162.2 125.21 162.2 124.965C162.2 124.609 162.044 124.304 161.73 124.051C161.426 123.797 160.918 123.67 160.207 123.67C159.877 123.67 159.521 123.691 159.141 123.733C158.76 123.775 158.358 123.822 157.935 123.873C157.52 123.915 157.084 123.957 156.627 124C156.178 124.042 155.721 124.063 155.256 124.063C154.24 124.063 153.373 123.953 152.653 123.733C151.942 123.513 151.363 123.213 150.914 122.832C150.465 122.451 150.14 122.002 149.937 121.486C149.733 120.961 149.632 120.399 149.632 119.798C149.632 119.036 149.81 118.333 150.165 117.69C150.521 117.047 151.028 116.493 151.688 116.027C152.349 115.553 153.144 115.185 154.075 114.923C155.015 114.66 156.06 114.529 157.211 114.529C157.812 114.529 158.438 114.567 159.09 114.643C159.75 114.711 160.397 114.804 161.032 114.923C161.667 115.041 162.276 115.181 162.86 115.342C163.444 115.494 163.961 115.659 164.409 115.837L163.229 118.757C162.272 118.401 161.316 118.122 160.359 117.919C159.411 117.707 158.434 117.601 157.427 117.601C156.724 117.601 156.128 117.656 155.637 117.766C155.154 117.868 154.761 118.008 154.456 118.185C154.151 118.355 153.927 118.553 153.783 118.782C153.648 119.002 153.58 119.235 153.58 119.48C153.58 119.658 153.614 119.819 153.682 119.963C153.758 120.107 153.876 120.233 154.037 120.344C154.206 120.445 154.422 120.525 154.685 120.585C154.955 120.635 155.285 120.661 155.675 120.661C156.03 120.661 156.407 120.64 156.805 120.597C157.202 120.555 157.617 120.513 158.049 120.47C158.48 120.42 158.925 120.373 159.382 120.331C159.847 120.288 160.321 120.267 160.804 120.267C161.701 120.267 162.484 120.373 163.152 120.585C163.829 120.796 164.388 121.093 164.828 121.473C165.268 121.854 165.598 122.303 165.818 122.819C166.038 123.335 166.148 123.898 166.148 124.508C166.148 125.295 165.966 126.027 165.603 126.704C165.239 127.381 164.697 127.969 163.978 128.469C163.258 128.959 162.361 129.344 161.286 129.624C160.22 129.903 158.984 130.043 157.579 130.043C156.716 130.043 155.882 129.988 155.078 129.878C154.274 129.776 153.508 129.636 152.78 129.459C152.052 129.273 151.367 129.057 150.724 128.811C150.089 128.566 149.509 128.303 148.984 128.024L150.609 125.18ZM168.827 125.053C168.827 124.334 168.984 123.678 169.297 123.086C169.61 122.493 170.08 121.985 170.706 121.562C171.332 121.131 172.111 120.801 173.042 120.572C173.981 120.335 175.073 120.217 176.317 120.217C177.24 120.217 178.209 120.284 179.225 120.42C180.249 120.555 181.302 120.762 182.386 121.042C182.343 120.568 182.2 120.132 181.954 119.734C181.709 119.328 181.366 118.981 180.926 118.693C180.494 118.397 179.969 118.168 179.352 118.008C178.742 117.847 178.048 117.766 177.27 117.766C176.846 117.766 176.381 117.792 175.873 117.843C175.365 117.893 174.84 117.969 174.299 118.071C173.757 118.173 173.22 118.3 172.687 118.452C172.162 118.604 171.671 118.786 171.214 118.998L170.071 115.913C170.638 115.71 171.243 115.524 171.887 115.354C172.538 115.185 173.203 115.041 173.88 114.923C174.557 114.796 175.234 114.698 175.911 114.631C176.588 114.563 177.244 114.529 177.879 114.529C180.68 114.529 182.762 115.244 184.125 116.675C185.488 118.105 186.169 120.297 186.169 123.251V129.776H182.411V128.367C182.022 128.595 181.594 128.811 181.129 129.014C180.672 129.218 180.173 129.395 179.631 129.548C179.089 129.7 178.505 129.818 177.879 129.903C177.261 129.996 176.605 130.043 175.911 130.043C174.743 130.043 173.715 129.916 172.826 129.662C171.946 129.408 171.21 129.057 170.617 128.608C170.025 128.16 169.576 127.635 169.271 127.034C168.975 126.425 168.827 125.764 168.827 125.053ZM172.788 124.927C172.788 125.172 172.852 125.409 172.979 125.637C173.105 125.858 173.309 126.056 173.588 126.234C173.867 126.403 174.223 126.543 174.654 126.653C175.094 126.755 175.623 126.805 176.241 126.805C176.901 126.805 177.54 126.746 178.158 126.628C178.776 126.509 179.352 126.353 179.885 126.158C180.418 125.963 180.9 125.739 181.332 125.485C181.764 125.231 182.123 124.969 182.411 124.698V124.038C181.836 123.877 181.264 123.742 180.697 123.632C180.139 123.522 179.601 123.437 179.085 123.378C178.577 123.31 178.095 123.263 177.638 123.238C177.189 123.213 176.796 123.2 176.457 123.2C175.755 123.2 175.171 123.247 174.705 123.34C174.24 123.433 173.863 123.56 173.575 123.72C173.287 123.873 173.084 124.055 172.966 124.266C172.847 124.478 172.788 124.698 172.788 124.927ZM193.494 132.315C193.968 132.484 194.451 132.624 194.941 132.734C195.432 132.853 195.906 132.946 196.363 133.013C196.829 133.09 197.273 133.14 197.696 133.166C198.119 133.2 198.496 133.217 198.826 133.217C199.825 133.217 200.692 133.094 201.429 132.848C202.174 132.611 202.791 132.29 203.282 131.884C203.782 131.477 204.154 131.003 204.399 130.462C204.645 129.928 204.768 129.361 204.768 128.76V128.113C204.446 128.333 204.069 128.545 203.638 128.748C203.206 128.951 202.732 129.129 202.216 129.281C201.7 129.433 201.149 129.556 200.565 129.649C199.99 129.742 199.393 129.789 198.775 129.789C197.548 129.789 196.414 129.607 195.373 129.243C194.332 128.871 193.431 128.354 192.669 127.694C191.907 127.025 191.311 126.226 190.879 125.295C190.456 124.364 190.244 123.331 190.244 122.197C190.244 121.038 190.468 119.988 190.917 119.049C191.366 118.101 191.983 117.292 192.771 116.624C193.566 115.955 194.506 115.439 195.589 115.075C196.672 114.711 197.849 114.529 199.118 114.529C199.66 114.529 200.197 114.563 200.73 114.631C201.264 114.698 201.771 114.791 202.254 114.91C202.745 115.028 203.202 115.172 203.625 115.342C204.057 115.502 204.438 115.68 204.768 115.875V114.796H208.525V128.062C208.525 129.425 208.318 130.631 207.903 131.68C207.489 132.73 206.879 133.61 206.075 134.321C205.28 135.04 204.289 135.582 203.104 135.946C201.92 136.318 200.561 136.505 199.029 136.505C198.479 136.505 197.908 136.479 197.315 136.428C196.723 136.386 196.126 136.318 195.525 136.225C194.933 136.141 194.345 136.035 193.761 135.908C193.185 135.789 192.631 135.65 192.098 135.489L193.494 132.315ZM194.192 122.159C194.192 122.76 194.311 123.327 194.548 123.86C194.793 124.385 195.14 124.846 195.589 125.244C196.037 125.633 196.579 125.942 197.214 126.171C197.849 126.391 198.564 126.501 199.359 126.501C199.876 126.501 200.388 126.454 200.896 126.361C201.412 126.26 201.903 126.12 202.368 125.942C202.842 125.764 203.282 125.549 203.688 125.295C204.103 125.041 204.463 124.757 204.768 124.444V119.506C204.387 119.201 203.985 118.943 203.562 118.731C203.138 118.52 202.707 118.346 202.267 118.211C201.826 118.075 201.382 117.978 200.934 117.919C200.485 117.851 200.049 117.817 199.626 117.817C198.763 117.817 197.993 117.931 197.315 118.16C196.647 118.388 196.08 118.702 195.614 119.099C195.157 119.489 194.806 119.946 194.561 120.47C194.315 120.995 194.192 121.558 194.192 122.159ZM212.093 122.235C212.093 121.219 212.3 120.25 212.715 119.328C213.13 118.397 213.726 117.576 214.505 116.865C215.284 116.154 216.236 115.587 217.361 115.164C218.495 114.741 219.782 114.529 221.221 114.529C222.651 114.529 223.938 114.745 225.08 115.177C226.231 115.6 227.204 116.184 228 116.928C228.804 117.673 229.418 118.549 229.841 119.556C230.272 120.564 230.488 121.643 230.488 122.794C230.488 122.938 230.484 123.094 230.476 123.263C230.476 123.424 230.467 123.572 230.45 123.708H216.282C216.443 124.156 216.701 124.567 217.057 124.939C217.421 125.312 217.873 125.633 218.415 125.904C218.957 126.175 219.583 126.386 220.294 126.539C221.005 126.683 221.792 126.755 222.655 126.755C223.519 126.755 224.378 126.666 225.232 126.488C226.087 126.302 226.904 126.069 227.683 125.79L228.952 128.659C228.461 128.887 227.962 129.091 227.454 129.268C226.955 129.438 226.43 129.581 225.88 129.7C225.338 129.81 224.767 129.895 224.166 129.954C223.574 130.013 222.947 130.043 222.287 130.043C220.603 130.043 219.126 129.84 217.856 129.433C216.587 129.027 215.525 128.473 214.67 127.77C213.815 127.068 213.172 126.243 212.74 125.295C212.309 124.347 212.093 123.327 212.093 122.235ZM226.502 120.775C226.367 120.36 226.155 119.975 225.867 119.62C225.588 119.256 225.237 118.943 224.813 118.68C224.39 118.41 223.899 118.198 223.341 118.046C222.782 117.893 222.169 117.817 221.5 117.817C220.789 117.817 220.142 117.898 219.558 118.058C218.974 118.219 218.462 118.435 218.021 118.706C217.581 118.977 217.213 119.29 216.917 119.645C216.629 120.001 216.418 120.377 216.282 120.775H226.502ZM234.538 114.796H238.296V116.065C239.295 115.498 240.247 115.1 241.152 114.872C242.066 114.643 242.959 114.529 243.831 114.529C244.974 114.529 246.032 114.698 247.005 115.037C247.978 115.367 248.82 115.862 249.531 116.522C250.242 117.182 250.797 118.008 251.194 118.998C251.601 119.98 251.804 121.118 251.804 122.413V129.776H248.059V123.022C248.059 122.201 247.94 121.469 247.703 120.826C247.475 120.174 247.14 119.628 246.7 119.188C246.269 118.74 245.74 118.401 245.113 118.173C244.495 117.936 243.801 117.817 243.031 117.817C242.625 117.817 242.206 117.859 241.774 117.944C241.351 118.029 240.932 118.151 240.518 118.312C240.111 118.465 239.718 118.659 239.337 118.896C238.956 119.125 238.609 119.387 238.296 119.683V129.776H234.538V114.796ZM257.021 125.18C258.037 125.79 259.154 126.238 260.373 126.526C261.592 126.814 262.84 126.958 264.118 126.958C264.981 126.958 265.701 126.899 266.276 126.78C266.852 126.662 267.313 126.509 267.66 126.323C268.007 126.137 268.253 125.925 268.396 125.688C268.54 125.451 268.612 125.21 268.612 124.965C268.612 124.609 268.456 124.304 268.143 124.051C267.838 123.797 267.33 123.67 266.619 123.67C266.289 123.67 265.934 123.691 265.553 123.733C265.172 123.775 264.77 123.822 264.347 123.873C263.932 123.915 263.496 123.957 263.039 124C262.59 124.042 262.133 124.063 261.668 124.063C260.652 124.063 259.785 123.953 259.065 123.733C258.354 123.513 257.775 123.213 257.326 122.832C256.878 122.451 256.552 122.002 256.349 121.486C256.146 120.961 256.044 120.399 256.044 119.798C256.044 119.036 256.222 118.333 256.577 117.69C256.933 117.047 257.44 116.493 258.101 116.027C258.761 115.553 259.556 115.185 260.487 114.923C261.427 114.66 262.472 114.529 263.623 114.529C264.224 114.529 264.85 114.567 265.502 114.643C266.162 114.711 266.81 114.804 267.444 114.923C268.079 115.041 268.688 115.181 269.272 115.342C269.856 115.494 270.373 115.659 270.821 115.837L269.641 118.757C268.684 118.401 267.728 118.122 266.771 117.919C265.824 117.707 264.846 117.601 263.839 117.601C263.136 117.601 262.54 117.656 262.049 117.766C261.566 117.868 261.173 118.008 260.868 118.185C260.563 118.355 260.339 118.553 260.195 118.782C260.06 119.002 259.992 119.235 259.992 119.48C259.992 119.658 260.026 119.819 260.094 119.963C260.17 120.107 260.288 120.233 260.449 120.344C260.618 120.445 260.834 120.525 261.097 120.585C261.368 120.635 261.698 120.661 262.087 120.661C262.442 120.661 262.819 120.64 263.217 120.597C263.615 120.555 264.029 120.513 264.461 120.47C264.893 120.42 265.337 120.373 265.794 120.331C266.259 120.288 266.733 120.267 267.216 120.267C268.113 120.267 268.896 120.373 269.564 120.585C270.242 120.796 270.8 121.093 271.24 121.473C271.68 121.854 272.01 122.303 272.23 122.819C272.451 123.335 272.561 123.898 272.561 124.508C272.561 125.295 272.379 126.027 272.015 126.704C271.651 127.381 271.109 127.969 270.39 128.469C269.67 128.959 268.773 129.344 267.698 129.624C266.632 129.903 265.396 130.043 263.991 130.043C263.128 130.043 262.294 129.988 261.49 129.878C260.686 129.776 259.92 129.636 259.192 129.459C258.465 129.273 257.779 129.057 257.136 128.811C256.501 128.566 255.921 128.303 255.396 128.024L257.021 125.18Z" fill="#0C0421"/>
<path d="M175.608 156.155C175.663 155.65 176.337 155.65 176.392 156.155L176.854 160.398C177.451 165.876 181.418 170.196 186.449 170.846L190.346 171.349C190.81 171.409 190.81 172.143 190.346 172.203L186.449 172.707C181.418 173.357 177.451 177.676 176.854 183.154L176.392 187.397C176.337 187.903 175.663 187.903 175.608 187.397L175.146 183.154C174.549 177.676 170.582 173.357 165.551 172.707L161.654 172.203C161.19 172.143 161.19 171.409 161.654 171.349L165.551 170.846C170.582 170.196 174.549 165.876 175.146 160.398L175.608 156.155Z" fill="#0C0421"/>
</svg>
